<svg width="157" height="146" viewBox="0 0 157 146" fill="none" xmlns="http://www.w3.org/2000/svg">
<path d="M0 96.6991H78.3758L109.979 104.916L156.752 105.548L156.752 146H0V96.6991Z" fill="#D9D9D9"/>
<path d="M78.376 105.548H156.752V146H78.376V105.548Z" fill="#D9D9D9"/>
<path d="M46.7725 70.1524H109.979V146H46.7725V70.1524Z" fill="#FFCE00"/>
<path d="M78.376 70.1524H109.979V146H78.376V70.1524Z" fill="#FF9500"/>
<path d="M83.7586 80.0141V109.068H75.7322V90.0299C74.4314 91.0166 73.175 91.8152 71.9612 92.4256C70.7456 93.0361 69.223 93.6217 67.3916 94.1789V87.6715C70.0925 86.802 72.1919 85.7549 73.6861 84.534C75.1785 83.3131 76.348 81.8065 77.1927 80.0141H83.7586Z" fill="#FF583E"/>
<path d="M78.333 80.0141H83.7579V109.068H78.333V80.0141Z" fill="#E80E03"/>
<path d="M36.3017 139.189H12.4902C12.7635 136.838 13.5905 134.627 14.9747 132.554C16.3588 130.482 18.9533 128.036 22.7598 125.218C25.0845 123.49 26.5716 122.178 27.2211 121.282C27.8706 120.386 28.1954 119.534 28.1954 118.728C28.1954 117.859 27.8742 117.115 27.2318 116.498C26.5876 115.88 25.7801 115.571 24.8059 115.571C23.7926 115.571 22.9639 115.891 22.3215 116.528C21.6773 117.163 21.2461 118.288 21.0242 119.898L13.0741 119.256C13.3864 117.021 13.9578 115.277 14.7883 114.022C15.6206 112.769 16.7936 111.808 18.3056 111.139C19.8193 110.47 21.9151 110.136 24.5912 110.136C27.3844 110.136 29.5565 110.454 31.1092 111.091C32.6602 111.726 33.8829 112.704 34.772 114.022C35.6611 115.341 36.1065 116.819 36.1065 118.455C36.1065 120.196 35.5972 121.859 34.5768 123.444C33.5582 125.028 31.7037 126.769 29.0134 128.666C27.4163 129.77 26.348 130.544 25.8085 130.986C25.2691 131.427 24.6355 132.004 23.9079 132.719H36.3017V139.189Z" fill="#FF583E"/>
<path d="M128.441 120.149L120.938 118.804C121.563 116.415 122.761 114.582 124.534 113.309C126.307 112.037 128.818 111.4 132.065 111.4C135.794 111.4 138.489 112.094 140.152 113.485C141.815 114.875 142.645 116.621 142.645 118.726C142.645 119.961 142.308 121.077 141.632 122.078C140.958 123.079 139.937 123.955 138.574 124.708C139.678 124.981 140.523 125.299 141.107 125.662C142.054 126.248 142.792 127.016 143.318 127.973C143.845 128.928 144.107 130.067 144.107 131.393C144.107 133.055 143.673 134.649 142.801 136.175C141.932 137.703 140.679 138.878 139.041 139.703C137.405 140.528 135.254 140.94 132.592 140.94C129.992 140.94 127.945 140.635 126.443 140.024C124.944 139.414 123.709 138.521 122.741 137.346C121.774 136.17 121.031 134.693 120.511 132.913L128.441 131.861C128.754 133.458 129.236 134.566 129.893 135.183C130.55 135.801 131.384 136.108 132.397 136.108C133.462 136.108 134.349 135.719 135.057 134.94C135.765 134.159 136.118 133.121 136.118 131.822C136.118 130.496 135.778 129.471 135.096 128.743C134.415 128.016 133.488 127.652 132.319 127.652C131.696 127.652 130.839 127.808 129.747 128.118L130.156 122.449C130.598 122.514 130.942 122.546 131.188 122.546C132.227 122.546 133.094 122.214 133.79 121.552C134.484 120.889 134.832 120.104 134.832 119.194C134.832 118.324 134.573 117.629 134.053 117.109C133.533 116.589 132.819 116.33 131.909 116.33C130.974 116.33 130.214 116.612 129.629 117.178C129.045 117.742 128.649 118.733 128.441 120.149Z" fill="#E80E03"/>
<path d="M102.915 70.1524H108.544V52.8308H97.2851L102.915 70.1524Z" fill="#949292"/>
<path d="M110.363 52.8309H46.9665C41.2745 52.8309 36.6602 47.984 36.6602 42.0049C36.6602 36.0259 41.2745 31.1789 46.9665 31.1789H110.363C116.056 31.1789 120.67 36.0259 120.67 42.0049C120.67 47.984 116.056 52.8309 110.363 52.8309Z" fill="#BA231C"/>
<path d="M115.14 36.3754C115.14 30.732 110.909 31.9514 105.278 31.9514H40.9912V3.40802C40.9912 1.52587 42.517 9.15527e-05 44.3991 9.15527e-05H110.428C113.207 9.15527e-05 115.453 2.26671 115.428 5.04594L115.14 36.3754Z" fill="#DD352E"/>
<path d="M48.7852 52.8308V70.1524H54.4373L60.0442 52.8308H48.7852Z" fill="#949292"/>
<circle cx="66.9734" cy="16.4555" r="1.73216" fill="#BA231C"/>
<circle cx="86.8923" cy="16.4555" r="1.73216" fill="#BA231C"/>
<path d="M105.411 16.4555H111.492C113.365 16.4555 114.987 17.7552 115.396 19.583L116.504 24.543C117.105 27.2302 117.482 29.9623 117.633 32.7116L118.071 40.7057H100.75L103.126 31.9207L101.458 21.0631C101.085 18.6402 102.96 16.4555 105.411 16.4555Z" fill="#BA231C" stroke="#BA231C"/>
<path d="M103.348 20.3528L104.647 28.1476H102.482L103.348 20.3528Z" fill="white"/>
<path d="M55.7142 23.3842L54.415 32.0449H57.4463L55.7142 23.3842Z" fill="white"/>
<path d="M51.8831 16.4555H45.106C43.2489 16.4555 41.636 17.7337 41.2118 19.5416L40.0811 24.3595C39.422 27.1683 39.0072 30.0289 38.8414 32.9092L38.3926 40.7057H56.5802L54.0848 31.9207L55.832 21.0927C56.2244 18.6608 54.3465 16.4555 51.8831 16.4555Z" fill="#BA231C" stroke="#BA231C"/>
<path d="M101.616 23.3842L102.482 32.0449H99.8842L101.616 23.3842Z" fill="white"/>
<path d="M105.412 16.4555H111.493C113.366 16.4555 114.988 17.7551 115.397 19.583L116.505 24.543C117.106 27.2301 117.483 29.9623 117.634 32.7116L118.072 40.7057H100.751L103.127 31.9207L101.459 21.063C101.086 18.6402 102.961 16.4555 105.412 16.4555Z" fill="#BA231C" stroke="#BA231C"/>
<path d="M57.5427 10.9117L60.5211 16.9875L67.181 17.9618C67.9389 18.0726 68.2415 19.0103 67.6931 19.5485L62.8739 24.2777L64.0115 30.9556C64.141 31.7155 63.3487 32.295 62.6709 31.9362L56.7141 28.7834L50.7573 31.9362C50.0795 32.295 49.2872 31.7155 49.4167 30.9556L50.5543 24.2777L45.7351 19.5484C45.1867 19.0102 45.4893 18.0726 46.2472 17.9617L52.9071 16.9874L55.8855 10.9117C56.2245 10.2203 57.2037 10.2203 57.5427 10.9117Z" fill="url(#paint0_linear)"/>
<defs>
<linearGradient id="paint0_linear" x1="56.7145" y1="12.9183" x2="56.7145" y2="37.9325" gradientUnits="userSpaceOnUse">
<stop stop-color="#FFCE00"/>
<stop offset="0.427" stop-color="#FFCE00"/>
<stop offset="1" stop-color="#FFC200"/>
</linearGradient>
</defs>
</svg>
