<svg width="337" height="131" viewBox="0 0 337 131" fill="none" xmlns="http://www.w3.org/2000/svg">
<path d="M176.561 102.475L21.8337 74.9418C15.3945 73.7959 11.2277 66.9491 12.5267 59.6488C13.8258 52.3486 20.0988 47.3594 26.538 48.5053L181.265 76.0387C187.704 77.1846 191.871 84.0315 190.572 91.3317C189.273 98.632 183 103.621 176.561 102.475Z" fill="#8D8D8D"/>
<path d="M189.769 101.268L14.3508 70.0523C7.05057 68.7533 2.18567 61.7822 3.48474 54.4819C4.78381 47.1817 11.7549 42.3168 19.0552 43.6158L194.474 74.8313C201.774 76.1304 206.639 83.1015 205.34 90.4018C204.041 97.702 197.07 102.567 189.769 101.268Z" fill="#BA231C"/>
<path d="M9.16884 45.9867C9.0935 45.8408 9.04485 45.6763 8.97018 45.5266L8.85055 46.1989C9.23004 45.9274 9.65474 45.7303 10.0577 45.502C9.7626 45.6716 9.44777 45.7987 9.16884 45.9867Z" fill="#DD352E"/>
<path d="M9.28592 43.7581C10.1741 43.737 18.1334 43.5222 19.0398 43.6835L190.161 74.1343C197.461 75.4333 203.227 74.8321 201.928 82.1324L209.804 40.1143C210.316 37.3825 208.502 34.7574 205.766 34.2705L119.391 18.9001C117.501 18.5639 115.586 19.339 114.462 20.8948L113.389 22.3801L112.756 20.4172C112.188 18.6562 110.695 17.3527 108.873 17.0285L21.8758 1.54749C19.1571 1.0637 16.5609 2.87547 16.0771 5.59418L12.9524 23.1539L9.28592 43.7581Z" fill="#DD352E"/>
<path d="M12.444 44.4343C12.0548 44.5637 11.6544 44.6678 11.278 44.8346C11.6537 44.6716 12.0541 44.5675 12.444 44.4343Z" fill="#DD352E"/>
<path d="M15.2313 43.8276C14.7268 43.882 14.2143 43.9155 13.7231 44.0268C14.2105 43.9148 14.723 43.8814 15.2313 43.8276Z" fill="#DD352E"/>
<circle cx="52.3113" cy="29.2463" r="2.18254" transform="rotate(10.0901 52.3113 29.2463)" fill="#BA231C"/>
<circle cx="78.0975" cy="33.8348" r="2.18254" transform="rotate(10.0901 78.0975 33.8348)" fill="#BA231C"/>
<circle cx="140.412" cy="44.9236" r="2.18254" transform="rotate(10.0901 140.412 44.9236)" fill="#BA231C"/>
<circle cx="166.197" cy="49.5121" r="2.18254" transform="rotate(10.0901 166.197 49.5121)" fill="#BA231C"/>
<path d="M113.389 22.3801L110.33 39.5704L106.506 61.0582" stroke="#B02721" stroke-width="0.5" stroke-linecap="round"/>
<path d="M30.1145 25.2962L19.464 23.4009C17.6306 23.0747 15.8145 24.0568 15.0839 25.7698L11.6802 33.75C10.5652 36.3644 9.67504 39.0692 9.01955 41.8348L6.37468 52.994L29.2214 57.0596L28.0815 45.2924L33.1932 30.5442C33.9986 28.2204 32.5359 25.727 30.1145 25.2962Z" fill="#BA231C" stroke="#BA231C"/>
<path d="M32.6606 34.2992L28.7162 45.4055L31.8955 45.9712L32.6606 34.2992Z" fill="white"/>
<path d="M190.133 53.7712L200.783 55.6664C202.616 55.9927 203.982 57.541 204.077 59.4009L204.519 68.0654C204.664 70.904 204.566 73.7498 204.227 76.5718L202.86 87.9583L180.013 83.8928L185.143 73.2412L185.432 57.635C185.478 55.176 187.711 53.3403 190.133 53.7712Z" fill="#BA231C" stroke="#BA231C"/>
<path d="M184.635 61.3428L184.506 73.128L181.327 72.5622L184.635 61.3428Z" fill="white"/>
<circle cx="33.0119" cy="80.0644" r="16.4384" transform="rotate(51.0279 33.0119 80.0644)" fill="#ADADAD" stroke="white" stroke-width="2"/>
<path d="M20.8356 89.5376C26.2951 96.2862 36.0931 97.411 42.7201 92.05C49.3471 86.6889 50.2935 76.872 44.834 70.1234C44.6787 81.9692 34.32 91.0856 22.5504 89.7344L20.8356 89.5376Z" fill="#8D8D8D"/>
<circle cx="32.7163" cy="80.2455" r="12.3653" transform="rotate(51.0279 32.7163 80.2455)" stroke="#807C7C"/>
<circle cx="162.7" cy="104.679" r="16.4384" transform="rotate(51.0279 162.7 104.679)" fill="#ADADAD" stroke="white" stroke-width="2"/>
<path d="M150.524 114.152C155.984 120.901 165.782 122.026 172.409 116.665C179.036 111.304 179.982 101.487 174.522 94.7383C174.367 106.584 164.008 115.701 152.239 114.349L150.524 114.152Z" fill="#8D8D8D"/>
<circle cx="162.405" cy="104.86" r="12.3653" transform="rotate(51.0279 162.405 104.86)" stroke="#807C7C"/>
<path d="M212.994 74.1833H275.457C276.499 74.1833 277.537 74.0468 278.543 73.7772L280.431 73.2716C289.73 70.7811 291.638 58.4281 283.523 53.2488V53.2488C277.524 49.4199 269.523 52.1653 267.138 58.8707L265.647 63.0632" stroke="#BA231C" stroke-width="3" stroke-linecap="round"/>
<path d="M212.348 94.851H275.456C276.499 94.851 277.536 94.9876 278.543 95.2572L280.431 95.7628C289.729 98.2532 291.637 110.606 283.523 115.786V115.786C277.524 119.615 269.522 116.869 267.138 110.164L265.647 105.971" stroke="#BA231C" stroke-width="3" stroke-linecap="round"/>
<path d="M214.932 84.5172H307.75C308.792 84.5172 309.83 84.3806 310.837 84.111L312.724 83.6054C322.023 81.115 323.931 68.7619 315.816 63.5826V63.5826C309.817 59.7537 301.816 62.4991 299.431 69.2045L297.941 73.3971" stroke="#8D8D8D" stroke-width="3" stroke-linecap="round"/>
</svg>
