<svg width="158" height="149" viewBox="0 0 158 149" fill="none" xmlns="http://www.w3.org/2000/svg">
<path d="M123.473 79.238H127.224V67.9823H119.721L123.473 79.238Z" fill="#949292"/>
<path d="M128.063 67.9823H40.9291C37.3029 67.9823 34.3633 65.0427 34.3633 61.4165C34.3633 57.7903 37.3029 54.8507 40.9291 54.8507H128.063C131.69 54.8507 134.629 57.7903 134.629 61.4165C134.629 65.0427 131.69 67.9823 128.063 67.9823Z" fill="#BA231C"/>
<path d="M36.3714 56.8392C36.3226 56.7754 36.2851 56.7004 36.2363 56.6347V56.9687C36.3958 56.8055 36.5834 56.6741 36.7578 56.5297C36.6303 56.6366 36.4896 56.7248 36.3714 56.8392Z" fill="#DD352E"/>
<path d="M36.2383 55.7563C36.6641 55.67 40.4779 54.8846 40.9281 54.8846H125.928C129.554 54.8846 132.279 54.1011 132.279 57.7273L132.447 39.4001C132.473 36.6208 130.227 34.3542 127.447 34.3542H84.5296H41.2383C38.4769 34.3542 36.2383 36.5927 36.2383 39.3542V45.5216V55.7563Z" fill="#DD352E"/>
<path d="M37.8152 55.8112C37.6389 55.9069 37.455 55.9913 37.2881 56.1038C37.455 55.9932 37.6389 55.9088 37.8152 55.8112Z" fill="#DD352E"/>
<path d="M39.1056 55.2803C38.8673 55.3497 38.6235 55.4098 38.3965 55.5054C38.6216 55.4098 38.8655 55.3497 39.1056 55.2803Z" fill="#DD352E"/>
<path d="M41.8662 67.9617V79.238H45.6181L49.34 67.9617H41.8662Z" fill="#949292"/>
<circle cx="55.709" cy="45.0827" r="1.06735" fill="#BA231C"/>
<circle cx="68.5175" cy="45.0827" r="1.06735" fill="#BA231C"/>
<circle cx="99.4716" cy="45.0827" r="1.06735" fill="#BA231C"/>
<circle cx="112.28" cy="45.0827" r="1.06735" fill="#BA231C"/>
<path d="M84.5283 36.5439V45.0828V55.7563" stroke="#B02721" stroke-width="0.5" stroke-linecap="round"/>
<path d="M42.2899 45.0827H41.0192C39.1569 45.0827 37.541 46.3679 37.1218 48.1823L37.0239 48.6061C36.3841 51.3754 35.9816 54.1943 35.8208 57.032L35.627 60.4526H46.9755L45.4184 54.8846L46.2404 49.7103C46.6262 47.2813 44.7493 45.0827 42.2899 45.0827Z" fill="#BA231C" stroke="#BA231C"/>
<path d="M46.6819 49.1993L45.7344 54.8846H47.3136L46.6819 49.1993Z" fill="white"/>
<path d="M126.563 45.0827H127.833C129.696 45.0827 131.312 46.3679 131.731 48.1824L131.829 48.6061C132.468 51.3755 132.871 54.1943 133.032 57.032L133.226 60.4526H121.877L123.434 54.8846L122.612 49.7103C122.226 47.2813 124.103 45.0827 126.563 45.0827Z" fill="#BA231C" stroke="#BA231C"/>
<path d="M122.171 49.1993L123.118 54.8846H121.539L122.171 49.1993Z" fill="white"/>
<path d="M21.9349 53.9347L12.1797 54.6519" stroke="#DDE124" stroke-width="2" stroke-linecap="round"/>
<path d="M23.1319 38.3821L13.9544 34.9407" stroke="#DDE124" stroke-width="2" stroke-linecap="round"/>
<path d="M32.4986 25.3921L24.6708 18.5231" stroke="#DDE124" stroke-width="2" stroke-linecap="round"/>
<path d="M49.6879 18.5515L46.4989 7.33211" stroke="#DDE124" stroke-width="2" stroke-linecap="round"/>
<path d="M70.7233 13.7029L68.9993 1.99997" stroke="#DDE124" stroke-width="2" stroke-linecap="round"/>
<path d="M90.4836 13.8219L91.5579 2.00001" stroke="#DDE124" stroke-width="2" stroke-linecap="round"/>
<path d="M110.595 16.6514L114.457 5.76206" stroke="#DDE124" stroke-width="2" stroke-linecap="round"/>
<path d="M129.923 23.8374L136.149 14.7911" stroke="#DDE124" stroke-width="2" stroke-linecap="round"/>
<path d="M144.627 37.6852L153.091 32.0968" stroke="#DDE124" stroke-width="2" stroke-linecap="round"/>
<path d="M145.942 54.3806L155.504 55.2449" stroke="#DDE124" stroke-width="2" stroke-linecap="round"/>
<path d="M72.0606 99.2318C73.3074 97.9825 73.3074 95.9607 72.0606 94.7115C70.8126 93.4659 68.7908 93.4659 67.5416 94.7115C66.296 95.9607 66.296 97.9825 67.5416 99.2318C68.7908 100.477 70.8126 100.477 72.0606 99.2318Z" fill="#FFB96F"/>
<path d="M118.39 85.3825H118.367L140.214 62.9282C143.627 58.8984 149.635 58.4029 153.661 61.7963C157.687 65.1996 158.193 71.2201 154.793 75.2424L126.16 109.474C121.409 114.098 115.041 116.684 108.413 116.684H65.8446C62.5362 116.684 59.355 117.968 56.975 120.267L52.0017 125.064L51.948 125.107C51.762 124.857 51.5574 124.621 51.3315 124.394L24.2296 97.2924C23.8714 96.9354 23.482 96.6247 23.0664 96.3726C29.3077 82.4884 42.3782 75.1613 57.4929 75.1613C62.948 75.1613 68.1385 76.302 72.8335 78.355H109.016C113.458 78.355 117.208 81.3215 118.39 85.3825Z" fill="#FED2A4"/>
<path d="M51.3321 133.43L35.863 148.669L0 112.532L15.1946 97.2924C17.6881 94.7988 21.7354 94.7976 24.2302 97.2924L51.3321 124.394C53.8419 126.904 53.8119 130.95 51.3321 133.43Z" fill="#C0BBBB"/>
<path d="M118.651 84.9409V84.9409C119.572 88.6261 116.947 92.2511 113.158 92.5256L79.8271 94.9409" stroke="#FFB96F"/>
</svg>
