<?xml version="1.0" encoding="utf-8"?>
<!-- Generator: Adobe Illustrator 21.0.0, SVG Export Plug-In . SVG Version: 6.00 Build 0)  -->
<svg version="1.1" id="Layer_1" xmlns="http://www.w3.org/2000/svg" xmlns:xlink="http://www.w3.org/1999/xlink" x="0px" y="0px"
	 viewBox="0 0 665 230" style="enable-background:new 0 0 665 230;" xml:space="preserve">
<style type="text/css">
	.st0{fill-rule:evenodd;clip-rule:evenodd;fill:#B9433B;}
	.st1{fill-rule:evenodd;clip-rule:evenodd;fill:#FFFFFF;}
	.st2{fill-rule:evenodd;clip-rule:evenodd;fill:#6B6966;}
</style>
<g>
	<path class="st0" d="M38.5,15.5h586.7c12.6,0,23,10.3,23,23l0,89.3c0,12.6-10.3,23-23,23l-586.7,0c-12.6,0-23-10.3-23-23V38.4
		C15.5,25.8,25.9,15.5,38.5,15.5L38.5,15.5z"/>
	<path class="st1" d="M597,53h15.3c4.9,0,4.9,4,0,9l-28,28l-16.6-16.6L579,62C584,57,592,53,597,53L597,53z M531.2,53h-15.3
		c-4.9,0-4.9,4,0,9l31.6,31.6l-31.6,31.6c-4.9,4.9-4.9,9,0,9h15.3c4.9,0,13-4,18-9l14.9-14.9l14.9,14.9c4.9,4.9,13,9,18,9h15.3
		c4.9,0,4.9-4,0-9L549.1,62C544.2,57,536.1,53,531.2,53L531.2,53z"/>
	<path class="st1" d="M266.5,84.4h17c1.5,0,2.7,1.2,2.7,2.7V99c0,1.5-1.2,2.7-2.7,2.7h-17c-1.5,0-2.7-1.2-2.7-2.7V87.1
		C263.8,85.6,265,84.4,266.5,84.4L266.5,84.4z"/>
	<path class="st1" d="M167.7,52.4H240c6.7,0,12.2,5.5,12.2,12.2v57.1c0,6.7-5.5,12.2-12.2,12.2l-72.3,0c-6.7,0-12.2-5.5-12.2-12.2
		V64.6C155.5,57.9,161,52.4,167.7,52.4L167.7,52.4z M183.3,76.8h41.1c2.8,0,5.2,2.3,5.2,5.2v22.5c0,2.8-2.3,5.2-5.2,5.2l-41.1,0
		c-2.8,0-5.2-2.3-5.2-5.2V81.9C178.1,79.1,180.5,76.8,183.3,76.8L183.3,76.8z"/>
	<path class="st1" d="M62.9,27.5h-0.6l-14.9,0l0,106.5h24.4l0.1-97.5C71.9,31.6,67.9,27.5,62.9,27.5L62.9,27.5z M76.8,134h55.1
		c6.7,0,12.2-5.5,12.2-12.2V64.6c0-6.7-5.5-12.2-12.2-12.2l-55.1,0v24.4h39.5c2.8,0,5.2,2.3,5.2,5.2v22.5c0,2.8-2.3,5.2-5.2,5.2
		l-39.5,0V134L76.8,134z"/>
	<path class="st1" d="M416.2,52.4h72.3c6.7,0,12.2,5.5,12.2,12.2l0,57.1c0,6.7-5.5,12.2-12.2,12.2l-72.3,0
		c-6.7,0-12.2-5.5-12.2-12.2l0-57.1C403.9,57.9,409.4,52.4,416.2,52.4L416.2,52.4z M325.3,52.4h55c6.7,0,12.2,5.5,12.2,12.2l0,57.1
		c0,6.7-5.5,12.2-12.2,12.2l-55,0v-24.4h39.5c2.8,0,5.2-2.3,5.2-5.2V81.9c0-2.8-2.3-5.2-5.2-5.2h-39.5V52.4L325.3,52.4z M320.3,134
		c-8.2,0-16.3,0-24.5,0l0-106.5l15.5,0c4.7,0,8.6,3.7,9,8.4L320.3,134L320.3,134z M431.7,76.8h41.1c2.8,0,5.2,2.3,5.2,5.2v22.5
		c0,2.8-2.3,5.2-5.2,5.2l-41.1,0c-2.8,0-5.2-2.3-5.2-5.2V81.9C426.6,79.1,428.9,76.8,431.7,76.8L431.7,76.8z"/>
	<path class="st2" d="M59.2,214.9v-34.3H46.4v-4.6h30.8v4.6H64.3v34.3H59.2L59.2,214.9z M79.8,214.9v-28.2h4.3v4.3
		c1.1-2,2.1-3.3,3-3.9c0.9-0.6,1.9-1,3.1-1c1.6,0,3.2,0.5,4.9,1.5l-1.6,4.4c-1.2-0.7-2.3-1-3.5-1c-1.1,0-2,0.3-2.8,0.9
		c-0.8,0.6-1.4,1.5-1.8,2.6c-0.5,1.7-0.8,3.5-0.8,5.6v14.7H79.8L79.8,214.9z M116.3,211.5c-1.8,1.5-3.5,2.6-5.1,3.2
		c-1.6,0.6-3.4,0.9-5.3,0.9c-3.1,0-5.5-0.8-7.1-2.3c-1.7-1.5-2.5-3.4-2.5-5.8c0-1.4,0.3-2.6,0.9-3.8c0.6-1.1,1.4-2.1,2.5-2.7
		c1-0.7,2.2-1.2,3.4-1.6c0.9-0.2,2.3-0.5,4.2-0.7c3.9-0.5,6.7-1,8.5-1.6c0-0.7,0-1.1,0-1.2c0-1.9-0.5-3.3-1.4-4.1
		c-1.2-1.1-3-1.6-5.4-1.6c-2.2,0-3.9,0.4-5,1.2c-1.1,0.8-1.9,2.2-2.4,4.2l-4.7-0.6c0.4-2,1.1-3.6,2.1-4.8c1-1.2,2.4-2.2,4.2-2.8
		c1.8-0.7,4-1,6.4-1c2.4,0,4.4,0.3,5.9,0.9c1.5,0.6,2.6,1.3,3.3,2.1c0.7,0.9,1.2,1.9,1.5,3.3c0.2,0.8,0.2,2.3,0.2,4.4v6.4
		c0,4.4,0.1,7.2,0.3,8.4c0.2,1.2,0.6,2.3,1.2,3.4h-5C116.7,213.9,116.4,212.8,116.3,211.5L116.3,211.5z M115.9,200.8
		c-1.7,0.7-4.3,1.3-7.8,1.8c-2,0.3-3.4,0.6-4.2,1c-0.8,0.4-1.4,0.9-1.9,1.6c-0.4,0.7-0.7,1.4-0.7,2.3c0,1.3,0.5,2.3,1.4,3.2
		c1,0.8,2.4,1.3,4.2,1.3c1.8,0,3.5-0.4,4.9-1.2c1.4-0.8,2.5-1.9,3.2-3.3c0.5-1.1,0.8-2.7,0.8-4.8V200.8L115.9,200.8z M146.4,214.9
		v-3.6c-1.8,2.8-4.4,4.2-7.9,4.2c-2.2,0-4.3-0.6-6.2-1.9c-1.9-1.2-3.3-3-4.4-5.2c-1-2.2-1.5-4.8-1.5-7.6c0-2.8,0.5-5.4,1.4-7.6
		c0.9-2.3,2.3-4,4.2-5.3c1.9-1.2,4-1.8,6.3-1.8c1.7,0,3.2,0.4,4.5,1.1c1.3,0.7,2.4,1.6,3.2,2.8v-13.9h4.7v38.9H146.4L146.4,214.9z
		 M131.3,200.9c0,3.6,0.8,6.3,2.3,8.1c1.5,1.8,3.3,2.7,5.4,2.7c2.1,0,3.9-0.9,5.3-2.6c1.5-1.7,2.2-4.3,2.2-7.8
		c0-3.9-0.7-6.7-2.2-8.5c-1.5-1.8-3.3-2.7-5.5-2.7c-2.1,0-3.9,0.9-5.3,2.6C132,194.4,131.3,197.1,131.3,200.9L131.3,200.9z
		 M177.6,205.9l4.9,0.6c-0.8,2.9-2.2,5.1-4.3,6.7c-2.1,1.6-4.8,2.4-8.1,2.4c-4.1,0-7.4-1.3-9.8-3.8c-2.4-2.5-3.6-6.1-3.6-10.7
		c0-4.7,1.2-8.4,3.7-11c2.4-2.6,5.6-3.9,9.5-3.9c3.8,0,6.8,1.3,9.2,3.8c2.4,2.6,3.6,6.2,3.6,10.8c0,0.3,0,0.7,0,1.3h-21
		c0.2,3.1,1,5.5,2.6,7.1c1.6,1.6,3.5,2.5,5.9,2.5c1.7,0,3.2-0.5,4.5-1.4C175.9,209.3,176.9,207.9,177.6,205.9L177.6,205.9z
		 M161.9,198.1h15.7c-0.2-2.4-0.8-4.1-1.8-5.3c-1.5-1.8-3.5-2.8-5.9-2.8c-2.2,0-4,0.7-5.5,2.2C162.9,193.7,162.1,195.7,161.9,198.1
		L161.9,198.1z M188.5,214.9v-28.2h4.3v3.9c0.9-1.4,2.1-2.5,3.5-3.3c1.5-0.8,3.1-1.3,5-1.3c2.1,0,3.8,0.4,5.1,1.3
		c1.3,0.9,2.3,2.1,2.8,3.6c2.2-3.3,5.1-4.9,8.7-4.9c2.8,0,4.9,0.8,6.4,2.3c1.5,1.5,2.3,3.9,2.3,7.1v19.3h-4.7v-17.7
		c0-1.9-0.2-3.3-0.5-4.1c-0.3-0.8-0.9-1.5-1.7-2c-0.8-0.5-1.8-0.8-2.9-0.8c-2,0-3.6,0.7-4.9,2c-1.3,1.3-2,3.4-2,6.3v16.4h-4.8v-18.3
		c0-2.1-0.4-3.7-1.2-4.8c-0.8-1.1-2-1.6-3.8-1.6c-1.3,0-2.6,0.4-3.7,1.1c-1.1,0.7-2,1.7-2.5,3.1c-0.5,1.4-0.8,3.3-0.8,5.9v14.6
		H188.5L188.5,214.9z M252.1,211.5c-1.8,1.5-3.5,2.6-5.1,3.2c-1.6,0.6-3.4,0.9-5.3,0.9c-3.1,0-5.5-0.8-7.1-2.3
		c-1.7-1.5-2.5-3.4-2.5-5.8c0-1.4,0.3-2.6,0.9-3.8c0.6-1.1,1.4-2.1,2.5-2.7c1-0.7,2.2-1.2,3.4-1.6c0.9-0.2,2.3-0.5,4.2-0.7
		c3.9-0.5,6.7-1,8.5-1.6c0-0.7,0-1.1,0-1.2c0-1.9-0.5-3.3-1.4-4.1c-1.2-1.1-3-1.6-5.4-1.6c-2.2,0-3.9,0.4-5,1.2
		c-1.1,0.8-1.9,2.2-2.4,4.2l-4.7-0.6c0.4-2,1.1-3.6,2.1-4.8c1-1.2,2.4-2.2,4.2-2.8c1.8-0.7,4-1,6.4-1c2.4,0,4.4,0.3,5.9,0.9
		c1.5,0.6,2.6,1.3,3.3,2.1c0.7,0.9,1.2,1.9,1.5,3.3c0.2,0.8,0.2,2.3,0.2,4.4v6.4c0,4.4,0.1,7.2,0.3,8.4c0.2,1.2,0.6,2.3,1.2,3.4h-5
		C252.6,213.9,252.3,212.8,252.1,211.5L252.1,211.5z M251.7,200.8c-1.7,0.7-4.3,1.3-7.8,1.8c-2,0.3-3.4,0.6-4.2,1
		c-0.8,0.4-1.4,0.9-1.9,1.6c-0.4,0.7-0.7,1.4-0.7,2.3c0,1.3,0.5,2.3,1.4,3.2c1,0.8,2.4,1.3,4.2,1.3c1.8,0,3.5-0.4,4.9-1.2
		c1.4-0.8,2.5-1.9,3.2-3.3c0.5-1.1,0.8-2.7,0.8-4.8V200.8L251.7,200.8z M263.9,214.9v-28.2h4.3v4.3c1.1-2,2.1-3.3,3-3.9
		c0.9-0.6,1.9-1,3.1-1c1.6,0,3.2,0.5,4.9,1.5l-1.6,4.4c-1.2-0.7-2.3-1-3.5-1c-1,0-2,0.3-2.8,0.9c-0.8,0.6-1.4,1.5-1.8,2.6
		c-0.5,1.7-0.8,3.5-0.8,5.6v14.7H263.9L263.9,214.9z M282.1,214.9v-38.9h4.8v22.2l11.3-11.4h6.2l-10.8,10.4l11.9,17.7h-5.9
		l-9.3-14.4l-3.4,3.2v11.2H282.1L282.1,214.9z M325.4,214.9v-24.4h-4.2v-3.7h4.2v-3c0-1.9,0.2-3.3,0.5-4.2c0.5-1.2,1.3-2.2,2.4-3
		c1.2-0.8,2.8-1.2,4.9-1.2c1.3,0,2.8,0.2,4.5,0.5l-0.7,4.2c-1-0.2-1.9-0.3-2.8-0.3c-1.4,0-2.5,0.3-3.1,0.9c-0.6,0.6-0.9,1.8-0.9,3.5
		l0,2.6h5.5v3.7h-5.5v24.4H325.4L325.4,214.9z M339.3,214.9v-28.2h4.3v4.3c1.1-2,2.1-3.3,3-3.9c0.9-0.6,1.9-1,3.1-1
		c1.6,0,3.2,0.5,4.9,1.5l-1.6,4.4c-1.2-0.7-2.3-1-3.5-1c-1,0-2,0.3-2.8,0.9c-0.8,0.6-1.4,1.5-1.8,2.6c-0.5,1.7-0.8,3.5-0.8,5.6
		l0,14.7H339.3L339.3,214.9z M355.7,200.8c0-5.2,1.4-9.1,4.4-11.6c2.4-2.1,5.4-3.1,8.9-3.1c3.9,0,7,1.3,9.5,3.8
		c2.5,2.5,3.7,6,3.7,10.5c0,3.6-0.5,6.5-1.6,8.6c-1.1,2.1-2.7,3.7-4.7,4.8c-2.1,1.1-4.3,1.7-6.8,1.7c-3.9,0-7.1-1.3-9.6-3.8
		C356.9,209.2,355.7,205.6,355.7,200.8L355.7,200.8z M360.6,200.8c0,3.6,0.8,6.3,2.4,8.1c1.6,1.8,3.6,2.7,5.9,2.7
		c2.4,0,4.3-0.9,5.9-2.7c1.6-1.8,2.4-4.6,2.4-8.2c0-3.5-0.8-6.1-2.4-7.9c-1.6-1.8-3.5-2.7-5.9-2.7c-2.4,0-4.4,0.9-5.9,2.7
		C361.4,194.5,360.6,197.2,360.6,200.8L360.6,200.8z M387.6,214.9v-28.2h4.3v3.9c0.9-1.4,2.1-2.5,3.5-3.3c1.5-0.8,3.1-1.3,5-1.3
		c2.1,0,3.8,0.4,5.1,1.3c1.3,0.9,2.3,2.1,2.8,3.6c2.2-3.3,5.1-4.9,8.7-4.9c2.8,0,4.9,0.8,6.4,2.3c1.5,1.5,2.3,3.9,2.3,7.1v19.3h-4.7
		v-17.7c0-1.9-0.2-3.3-0.5-4.1c-0.3-0.8-0.9-1.5-1.7-2c-0.8-0.5-1.8-0.8-2.9-0.8c-2,0-3.6,0.7-4.9,2c-1.3,1.3-2,3.4-2,6.3v16.4h-4.8
		v-18.3c0-2.1-0.4-3.7-1.2-4.8c-0.8-1.1-2-1.6-3.8-1.6c-1.3,0-2.6,0.4-3.7,1.1c-1.1,0.7-2,1.7-2.5,3.1c-0.5,1.4-0.8,3.3-0.8,5.9
		v14.6H387.6L387.6,214.9z M448.8,214.9v-38.9h26.2v4.6H454v12h18.2v4.6H454v17.7H448.8L448.8,214.9z M481.2,181.5v-5.5h4.8v5.5
		H481.2L481.2,181.5z M481.2,214.9v-28.2h4.8v28.2H481.2L481.2,214.9z M493.2,214.9v-28.2h4.3v4c2.1-3.1,5.1-4.6,9-4.6
		c1.7,0,3.3,0.3,4.7,0.9c1.4,0.6,2.5,1.4,3.2,2.4c0.7,1,1.2,2.2,1.5,3.5c0.2,0.9,0.3,2.4,0.3,4.6v17.3h-4.8v-17.1
		c0-1.9-0.2-3.4-0.6-4.4c-0.4-1-1-1.7-2-2.3c-0.9-0.6-2.1-0.9-3.3-0.9c-2,0-3.8,0.7-5.3,1.9c-1.5,1.3-2.2,3.7-2.2,7.4v15.4H493.2
		L493.2,214.9z M523.3,214.9v-38.9h4.8v38.9H523.3L523.3,214.9z M553.8,211.5c-1.8,1.5-3.5,2.6-5.1,3.2c-1.6,0.6-3.4,0.9-5.3,0.9
		c-3.1,0-5.5-0.8-7.1-2.3c-1.7-1.5-2.5-3.4-2.5-5.8c0-1.4,0.3-2.6,0.9-3.8c0.6-1.1,1.4-2.1,2.5-2.7c1-0.7,2.2-1.2,3.4-1.6
		c0.9-0.2,2.3-0.5,4.2-0.7c3.9-0.5,6.7-1,8.5-1.6c0-0.7,0-1.1,0-1.2c0-1.9-0.5-3.3-1.4-4.1c-1.2-1.1-3-1.6-5.4-1.6
		c-2.2,0-3.9,0.4-5,1.2c-1.1,0.8-1.9,2.2-2.4,4.2l-4.7-0.6c0.4-2,1.1-3.6,2.1-4.8c1-1.2,2.4-2.2,4.2-2.8c1.8-0.7,4-1,6.4-1
		c2.4,0,4.4,0.3,5.9,0.9c1.5,0.6,2.6,1.3,3.3,2.1c0.7,0.9,1.2,1.9,1.5,3.3c0.2,0.8,0.2,2.3,0.2,4.4v6.4c0,4.4,0.1,7.2,0.3,8.4
		c0.2,1.2,0.6,2.3,1.2,3.4h-5C554.3,213.9,554,212.8,553.8,211.5L553.8,211.5z M553.4,200.8c-1.7,0.7-4.3,1.3-7.8,1.8
		c-2,0.3-3.4,0.6-4.2,1c-0.8,0.4-1.4,0.9-1.9,1.6c-0.4,0.7-0.7,1.4-0.7,2.3c0,1.3,0.5,2.3,1.4,3.2c1,0.8,2.4,1.3,4.2,1.3
		c1.8,0,3.5-0.4,4.9-1.2c1.4-0.8,2.5-1.9,3.2-3.3c0.5-1.1,0.8-2.7,0.8-4.8V200.8L553.4,200.8z M565.7,214.9v-28.2h4.3v4
		c2.1-3.1,5.1-4.6,9-4.6c1.7,0,3.3,0.3,4.7,0.9c1.4,0.6,2.5,1.4,3.2,2.4c0.7,1,1.2,2.2,1.5,3.5c0.2,0.9,0.3,2.4,0.3,4.6v17.3h-4.8
		v-17.1c0-1.9-0.2-3.4-0.6-4.4c-0.4-1-1-1.7-2-2.3c-1-0.6-2.1-0.9-3.3-0.9c-2,0-3.8,0.7-5.3,1.9c-1.5,1.3-2.2,3.7-2.2,7.4v15.4
		H565.7L565.7,214.9z M614.1,214.9v-3.6c-1.8,2.8-4.4,4.2-7.9,4.2c-2.2,0-4.3-0.6-6.2-1.9c-1.9-1.2-3.3-3-4.4-5.2
		c-1-2.2-1.5-4.8-1.5-7.6c0-2.8,0.5-5.4,1.4-7.6c0.9-2.3,2.3-4,4.2-5.3c1.9-1.2,4-1.8,6.3-1.8c1.7,0,3.2,0.4,4.5,1.1
		c1.3,0.7,2.4,1.6,3.2,2.8v-13.9h4.7v38.9H614.1L614.1,214.9z M599,200.9c0,3.6,0.8,6.3,2.3,8.1c1.5,1.8,3.3,2.7,5.4,2.7
		c2.1,0,3.9-0.9,5.3-2.6c1.5-1.7,2.2-4.3,2.2-7.8c0-3.9-0.7-6.7-2.2-8.5c-1.5-1.8-3.3-2.7-5.5-2.7c-2.1,0-3.9,0.9-5.3,2.6
		C599.8,194.4,599,197.1,599,200.9L599,200.9z"/>
</g>
</svg>
