<svg width="60" height="23" viewBox="0 0 60 23" fill="none" xmlns="http://www.w3.org/2000/svg">
<path d="M55.5476 9.79412H2C1.44772 9.79412 1 10.2418 1 10.7941V18.5882H3M55.5476 9.79412V2C55.5476 1.44771 55.9953 1 56.5476 1H58C58.5523 1 59 1.44772 59 2V18.5882H57M55.5476 9.79412L55.619 18.5882H53.5476M57 18.5882H53.5476M57 18.5882L56.3971 20.951C56.1559 21.8961 54.8428 21.9721 54.4942 21.0612L53.5476 18.5882M3 18.5882L3.94658 21.0612C4.29523 21.9721 5.6083 21.8961 5.84945 20.951L6.45238 18.5882M3 18.5882H6.45238M6.45238 18.5882H53.5476" stroke="black"/>
</svg>
