<svg width="40" height="30" viewBox="0 0 40 30" fill="none" xmlns="http://www.w3.org/2000/svg">
<path d="M0.5 20.5L9 6L11.6584 1.56935C11.8654 1.22435 12.259 1.037 12.6573 1.0939L20.0871 2.15529C23.9907 2.71296 27.7461 4.03474 31.1385 6.04503L38.5957 10.4641C39.0876 10.7556 39.2354 11.3997 38.9196 11.8765L27.25 29.5M0.5 20.5L8 21.5L11.7407 22.3016C13.9069 22.7658 16.015 23.4685 18.0265 24.3969L21.5 26L27.25 29.5M0.5 20.5L3.90096 22.7673C5.62898 23.9193 7.47196 24.8888 9.40024 25.6601L14 27.5L16.96 28.3457C19.6403 29.1115 22.4142 29.5 25.2016 29.5H27.25M20.5 10.5L18.75 13.25M17 16L18.75 13.25M18.75 13.25L15 12M18.75 13.25L22 14.5" stroke="black" stroke-linecap="round" stroke-linejoin="round"/>
</svg>
