<svg width="68" height="21" viewBox="0 0 68 21" fill="none" xmlns="http://www.w3.org/2000/svg">
<path d="M0.5 9.5H61M0.5 9.5V12M0.5 9.5L8.5 0.5H67.5M61 9.5V12M61 9.5L67.5 0.5M61 12L67.5 3V0.5M61 12H59M61 12H52.5M61 12V15C61 18.0376 58.5376 20.5 55.5 20.5V20.5C52.4624 20.5 50 18.0376 50 15V12M0.5 12H3M0.5 12V15C0.5 18.0376 2.96243 20.5 6 20.5V20.5C9.03757 20.5 11.5 18.0376 11.5 15V12M11.5 12H50M11.5 12H9.5M50 12H52.5M59 12H52.5M59 12V14.25C59 16.0449 57.5449 17.5 55.75 17.5V17.5C53.9551 17.5 52.5 16.0449 52.5 14.25V12M9.5 12H3M9.5 12V14.25C9.5 16.0449 8.04493 17.5 6.25 17.5V17.5C4.45507 17.5 3 16.0449 3 14.25V12" stroke="black"/>
</svg>
