<svg width="78" height="33" viewBox="0 0 78 33" fill="none" xmlns="http://www.w3.org/2000/svg">
<rect x="50.5174" y="21.8385" width="27.4828" height="4.32059" rx="2.16029" fill="#EAEAEA"/>
<rect x="53.4886" y="23.2787" width="9.36128" height="1.48556" rx="0.742778" transform="rotate(90 53.4886 23.2787)" fill="#EAEAEA"/>
<rect x="76.5146" y="23.2787" width="9.36128" height="1.48556" rx="0.742778" transform="rotate(90 76.5146 23.2787)" fill="#EAEAEA"/>
<rect width="30.5755" height="4.33733" rx="2.16866" transform="matrix(0.940805 -0.338949 0.357931 0.933748 17.0922 19.5981)" fill="#EAEAEA"/>
<rect width="18.076" height="3.70908" rx="1.85454" transform="matrix(0.555613 0.831441 -0.846829 0.531865 45.4876 9.5968)" fill="#EAEAEA"/>
<rect width="26.7557" height="4.43898" rx="2.21949" transform="matrix(0.37287 0.927884 -0.935501 0.353324 9.35198 0)" fill="#666666"/>
<rect width="26.7557" height="4.43898" rx="2.21949" transform="matrix(0.37287 0.927884 -0.935501 0.353324 4.15262 1.44019)" fill="#666666"/>
<rect x="15.6069" y="21.8385" width="27.4828" height="4.32059" rx="2.16029" fill="#666666"/>
<path d="M40.9294 26.8792H17.7672C16.5741 26.8792 15.6069 27.8463 15.6069 29.0394V29.3428C15.6069 30.3684 16.4382 31.1997 17.4638 31.1997H18.4206C18.9178 31.1997 19.3208 31.6027 19.3208 32.0999V32.2572C19.3208 32.6674 19.6533 33 20.0635 33C20.4738 33 20.8063 32.6674 20.8063 32.2572V32.0999C20.8063 31.6027 21.2093 31.1997 21.7064 31.1997H37.3615C37.8586 31.1997 38.2616 31.6027 38.2616 32.0999V32.2572C38.2616 32.6674 38.5942 33 39.0044 33C39.4146 33 39.7472 32.6674 39.7472 32.2572V32.0999C39.7472 31.6027 40.1502 31.1997 40.6473 31.1997H41.4184C42.3414 31.1997 43.0897 30.4515 43.0897 29.5285V29.0394C43.0897 27.8463 42.1225 26.8792 40.9294 26.8792Z" fill="#666666"/>
</svg>
