<svg width="23" height="36" viewBox="0 0 23 36" fill="none" xmlns="http://www.w3.org/2000/svg">
<path d="M5.5 11.5L4.12265 1.85858C4.05228 1.36593 3.63036 1 3.1327 1H1.63891C1.03526 1 0.56923 1.53077 0.647305 2.12934L3.38644 23.1293C3.4514 23.6274 3.87575 24 4.37804 24H5.5H7.5H10.5M5.5 11.5H21.5C22.0523 11.5 22.5 11.9477 22.5 12.5V13C22.5 13.5523 22.0523 14 21.5 14H19.5M5.5 11.5V13C5.5 13.5523 5.94772 14 6.5 14V14M19.5 14L18.5 18M19.5 14H17.5M18.5 18H20.5C21.0523 18 21.5 18.4477 21.5 19V23C21.5 23.5523 21.0523 24 20.5 24H18.5H16.5H12.5M18.5 18H16.5M6.5 14L6.8905 17.124C6.95306 17.6245 7.37846 18 7.88278 18H16.5M6.5 14H17.5M16.5 18L17.5 14M10.5 24V30.5V31.5C10.5 32.0523 10.0523 32.5 9.5 32.5H4.5C3.94772 32.5 3.5 32.9477 3.5 33.5V34.5C3.5 35.0523 3.94772 35.5 4.5 35.5H4.75C5.16421 35.5 5.5 35.1642 5.5 34.75V34.75C5.5 34.3358 5.83579 34 6.25 34H10.75C11.1642 34 11.5 34.3358 11.5 34.75V34.75C11.5 35.1642 11.8358 35.5 12.25 35.5H12.75C13.1642 35.5 13.5 35.1642 13.5 34.75V34.75C13.5 34.3358 13.8358 34 14.25 34H17.75C18.1642 34 18.5 34.3358 18.5 34.75V34.75C18.5 35.1642 18.8358 35.5 19.25 35.5H19.5C20.0523 35.5 20.5 35.0523 20.5 34.5V34V33.5C20.5 32.9477 20.0523 32.5 19.5 32.5H13.5C12.9477 32.5 12.5 32.0523 12.5 31.5V24M10.5 24H12.5" stroke="black" stroke-linecap="round" stroke-linejoin="round"/>
</svg>
