<svg width="58" height="34" viewBox="0 0 58 34" fill="none" xmlns="http://www.w3.org/2000/svg">
<path d="M4 15V2C4 1.44772 4.44772 1 5 1H7C7.55228 1 8 1.44772 8 2V14C8 14.5523 8.44772 15 9 15H24.5C25.0523 15 25.5 15.4477 25.5 16V24.5M4 15H2C1.44772 15 1 15.4477 1 16V29C1 29.5523 1.44772 30 2 30H2.5C3.05228 30 3.5 30.4477 3.5 31V32.5C3.5 33.0523 3.94772 33.5 4.5 33.5H5.8406C6.24063 33.5 6.60217 33.2616 6.75975 32.8939L7.74025 30.6061C7.89783 30.2384 8.25937 30 8.6594 30H20.8406C21.2406 30 21.6022 30.2384 21.7597 30.6061L22.7403 32.8939C22.8978 33.2616 23.2594 33.5 23.6594 33.5H24.5C25.0523 33.5 25.5 33.0523 25.5 32.5V29C25.5 28.4477 25.9477 28 26.5 28H53.5C54.0523 28 54.5 28.4477 54.5 29V32.5C54.5 33.0523 54.9477 33.5 55.5 33.5H56C56.5523 33.5 57 33.0523 57 32.5V30V25.5C57 24.9477 56.5523 24.5 56 24.5H25.5M4 15V19.5V23.5C4 24.0523 4.44772 24.5 5 24.5H8H25.5" stroke="black" stroke-linecap="round" stroke-linejoin="round"/>
</svg>
