<svg width="29" height="35" viewBox="0 0 29 35" fill="none" xmlns="http://www.w3.org/2000/svg">
<path d="M7.5 11.5L6.12265 1.85858C6.05228 1.36593 5.63036 1 5.1327 1H3.63891C3.03526 1 2.56923 1.53077 2.64731 2.12934L5.39133 23.1669C5.45349 23.6435 5.85956 24 6.3402 24V24C6.94161 24 7.39393 24.5482 7.27969 25.1387L6.26124 30.4027M7.5 11.5H23.5C24.0523 11.5 24.5 11.9477 24.5 12.5V13C24.5 13.5523 24.0523 14 23.5 14H21.5M7.5 11.5V13C7.5 13.5523 7.94772 14 8.5 14V14M21.5 14L20.5 18M21.5 14H19.5M20.5 18H22.5C23.0523 18 23.5 18.4477 23.5 19V23C23.5 23.5523 23.0523 24 22.5 24H21.854C21.1812 24 20.7003 24.651 20.8982 25.2941L22.1999 29.5247C22.3647 30.0601 22.0575 30.6264 21.5189 30.7803L20.75 31M20.5 18H18.5M20.75 31L25.9456 29.6446C26.289 29.555 26.6542 29.6542 26.9051 29.9051L27.6686 30.6686C27.8283 30.8283 27.7782 31.0986 27.5718 31.1903V31.1903C19.2497 34.889 9.75029 34.889 1.42824 31.1903V31.1903C1.22184 31.0986 1.17166 30.8283 1.33137 30.6686L2.10404 29.896C2.35004 29.65 2.70622 29.5495 3.04452 29.6307L6.26124 30.4027M20.75 31V31C16.9749 31.9848 13.0153 32.0237 9.22166 31.1132L8 30.82M20.75 31L18.7231 24.694C18.5901 24.2804 18.2054 24 17.771 24H10.304C9.83445 24 9.42816 24.3266 9.3273 24.7852L8 30.82M8 30.82L6.26124 30.4027M8.5 14L8.8905 17.124C8.95306 17.6245 9.37846 18 9.88278 18H18.5M8.5 14H19.5M18.5 18L19.5 14" stroke="black" stroke-linecap="round" stroke-linejoin="round"/>
</svg>
