<svg width="39" height="30" viewBox="0 0 39 30" fill="none" xmlns="http://www.w3.org/2000/svg">
<path d="M6.0237 12.4701L4.68567 1.83358C4.623 1.33538 4.2006 0.960907 3.69848 0.958401L2.21506 0.950997C1.61143 0.947984 1.14275 1.47642 1.21784 2.07537L3.96134 23.96M6.0237 12.4701L22.0235 12.55C22.5758 12.5527 23.0213 13.0027 23.0185 13.555L23.011 15.055L23.0111 15.04M6.0237 12.4701L6.01622 13.9701C6.01346 14.5224 6.45894 14.9723 7.01121 14.9751V14.9751M23.0111 15.04L23.5 19.042M23.0111 15.04L18.0111 15.03L7.01121 14.9751M23.5 19.042L21.9911 19.0499M23.5 19.042L16.9911 19.025L8.37402 18.9819C7.8697 18.9794 7.44618 18.6018 7.38612 18.101L7.01121 14.9751M21.9911 19.0499L21.9611 24.0498M21.9911 19.0499L31.5 19L36.5 19C37.0523 19 37.5 19.4477 37.5 20L37.5 24.0498M21.9611 24.0498L18.9612 24.0349M21.9611 24.0498L22.0008 27.9899C22.0064 28.5461 21.5571 29 21.0009 29L20.0011 29C19.4527 29 19.0066 28.5584 19.0011 28.0101L18.9612 24.0349M21.9611 24.0498L34.5 24.0498M18.9612 24.0349L16.9612 24.0249L12.9612 24.0049L10.9613 23.9949L7.96129 23.98L6.9613 23.975M3.96134 23.96L5.96132 23.97L6.9613 23.975M3.96134 23.96L3.99239 28.0077C3.9966 28.5569 4.44307 29 4.99236 29L5.96132 29C6.5136 29 6.96132 28.5523 6.96131 28L6.9613 23.975M37.5 24.0498L37.5 28C37.5 28.5523 37.0523 29 36.5 29L35.5 29C34.9477 29 34.5 28.5523 34.5 28L34.5 24.0498M37.5 24.0498L34.5 24.0498" stroke="black" stroke-linecap="round" stroke-linejoin="round"/>
</svg>
