<svg width="27" height="25" viewBox="0 0 27 25" fill="none" xmlns="http://www.w3.org/2000/svg">
<path d="M13.5 24.0213C13.1156 24.0213 12.745 23.8821 12.4562 23.6291C11.3655 22.6754 10.3139 21.7791 9.3861 20.9885L9.38136 20.9844C6.66122 18.6663 4.31227 16.6645 2.67792 14.6925C0.85096 12.488 0 10.3977 0 8.1143C0 5.89574 0.760735 3.84899 2.14192 2.3508C3.53959 0.834892 5.45739 0 7.54266 0C9.10121 0 10.5285 0.492737 11.7849 1.46441C12.4189 1.95488 12.9937 2.55515 13.5 3.25532C14.0065 2.55515 14.5811 1.95488 15.2153 1.46441C16.4717 0.492737 17.899 0 19.4575 0C21.5426 0 23.4606 0.834892 24.8583 2.3508C26.2395 3.84899 27 5.89574 27 8.1143C27 10.3977 26.1492 12.488 24.3223 14.6923C22.6879 16.6645 20.3392 18.6661 17.6195 20.984C16.69 21.7758 15.6368 22.6735 14.5436 23.6295C14.255 23.8821 13.8842 24.0213 13.5 24.0213Z" fill="#D71921"/>
</svg>
