<svg width="40" height="40" viewBox="0 0 40 40" fill="none" xmlns="http://www.w3.org/2000/svg">
<path fill-rule="evenodd" clip-rule="evenodd" d="M19.9999 0C20.9534 0 21.6113 0.740662 22.2631 1.4743C22.6491 1.90887 23.0317 2.33948 23.2659 2.38129C23.5057 2.42432 24.0205 2.14264 24.5323 1.86249C25.3789 1.39893 26.2209 0.938416 27.0831 1.25458C27.9548 1.5744 28.2813 2.47467 28.6066 3.37189C28.7993 3.90289 28.991 4.43207 29.1744 4.53796C29.3581 4.64386 29.9228 4.54651 30.4866 4.44946C31.4333 4.28619 32.3788 4.12323 33.0808 4.70642C33.779 5.28687 33.7747 6.23444 33.7703 7.18201C33.7679 7.74139 33.7651 8.30078 33.9023 8.461C34.0396 8.62152 34.599 8.71429 35.1588 8.80707C36.1089 8.96484 37.0606 9.12262 37.5262 9.9054C37.9905 10.6863 37.6702 11.5771 37.3487 12.471C37.1557 13.0072 36.962 13.5452 37.0401 13.7518C37.1182 13.9578 37.6135 14.2416 38.1113 14.527C38.9552 15.0104 39.804 15.4965 39.9722 16.4093C40.1376 17.3065 39.5357 18.0527 38.9286 18.8058C38.5562 19.2679 38.1804 19.7339 38.1804 20C38.1804 20.2664 38.5562 20.7324 38.9286 21.1945C39.5357 21.9473 40.1376 22.6935 39.9722 23.5907C39.804 24.5035 38.9552 24.9899 38.1113 25.4733C37.6135 25.7584 37.1182 26.0422 37.0401 26.2485C36.962 26.4551 37.1557 26.9931 37.3487 27.5293C37.6702 28.4232 37.9905 29.314 37.5262 30.0946C37.0606 30.8777 36.1089 31.0355 35.1588 31.1929C34.599 31.286 34.0396 31.3788 33.9023 31.539C33.7651 31.6995 33.7679 32.2589 33.7703 32.8183C33.7747 33.7659 33.779 34.7134 33.0808 35.2939C32.3788 35.8771 31.4333 35.7141 30.4866 35.5508C29.9228 35.4538 29.3581 35.3564 29.1744 35.4623C28.991 35.5682 28.7993 36.0974 28.6066 36.6284C28.2813 37.5256 27.9548 38.4259 27.0831 38.7457C26.2209 39.0619 25.3789 38.6011 24.5323 38.1378C24.0205 37.8577 23.506 37.576 23.2659 37.619C23.0317 37.6608 22.6491 38.0914 22.2631 38.5257C21.6113 39.2593 20.9534 40 19.9999 40C19.0466 40 18.3887 39.2593 17.7366 38.5257C17.3509 38.0911 16.9683 37.6605 16.7338 37.6187C16.494 37.5757 15.9795 37.8574 15.4674 38.1375C14.6208 38.6011 13.7791 39.0616 12.917 38.7454C12.0449 38.4256 11.7187 37.5253 11.3931 36.6281C11.2008 36.0974 11.0087 35.5679 10.8253 35.462C10.6419 35.3561 10.0772 35.4535 9.51306 35.5508C8.56636 35.7138 7.6209 35.8768 6.91893 35.2936C6.22068 34.7131 6.22502 33.7656 6.22935 32.818C6.23214 32.2586 6.23462 31.6992 6.09739 31.539C5.96015 31.3785 5.40099 31.2857 4.84091 31.1929C3.8908 31.0355 2.93914 30.8774 2.47354 30.0946C2.00948 29.3137 2.3298 28.4229 2.65136 27.529C2.84435 26.9928 3.03766 26.4548 2.95959 26.2482C2.88183 26.0422 2.38649 25.7584 1.88836 25.473C1.04482 24.9896 0.195701 24.5035 0.0277987 23.5907C-0.137626 22.6935 0.463974 21.947 1.07115 21.1942C1.44382 20.7321 1.81959 20.2661 1.81959 19.9997C1.81959 19.7336 1.44382 19.2676 1.07115 18.8055C0.463974 18.0524 -0.137626 17.3065 0.0277987 16.409C0.195701 15.4962 1.04482 15.0101 1.88836 14.5267C2.38649 14.2413 2.88183 13.9575 2.95959 13.7515C3.03766 13.5449 2.84435 13.0069 2.65136 12.4707C2.3298 11.5768 2.00917 10.686 2.47354 9.9054C2.93914 9.12231 3.8908 8.96454 4.84091 8.80707C5.40099 8.71399 5.96015 8.62122 6.09739 8.461C6.23462 8.30048 6.23214 7.74109 6.22935 7.1817C6.22502 6.23413 6.22068 5.28625 6.91893 4.70642C7.6209 4.12323 8.56636 4.28589 9.51306 4.44916C10.0772 4.5462 10.6419 4.64355 10.8253 4.53766C11.0087 4.43207 11.2008 3.90259 11.3931 3.37158C11.7184 2.47467 12.0452 1.5741 12.917 1.25427C13.7791 0.93811 14.6208 1.39893 15.4674 1.86218C15.9795 2.14233 16.494 2.42401 16.7338 2.38098C16.9683 2.33917 17.3509 1.90857 17.7366 1.4743C18.3887 0.740662 19.0466 0 19.9999 0Z" fill="#FF7337"/>
<path d="M38.9292 18.8049C39.5361 18.052 40.1374 17.3061 39.9721 16.4093L9.51294 35.5508C10.0771 35.4535 10.6418 35.3561 10.8252 35.462C11.0086 35.5679 11.2006 36.0974 11.393 36.6281L11.3936 36.6298C11.719 37.5265 12.0454 38.4258 12.9168 38.7454C13.779 39.0616 14.6206 38.6011 15.4673 38.1375L15.4688 38.1367C15.9804 37.8568 16.4941 37.5757 16.7337 37.6187C16.9682 37.6605 17.3508 38.0911 17.7365 38.5257L17.7372 38.5265C18.389 39.2599 19.0469 40 19.9997 40C20.9532 40 21.6112 39.2594 22.2629 38.5258L22.263 38.5257L22.2639 38.5247C22.6496 38.0908 23.0318 37.6608 23.2658 37.619C23.5059 37.576 24.0204 37.8577 24.5322 38.1378L24.5325 38.138C25.379 38.6012 26.2209 39.0618 27.0829 38.7457C27.9547 38.4259 28.2812 37.5256 28.6064 36.6284L28.6075 36.6255C28.7998 36.0955 28.9912 35.568 29.1743 35.4623C29.3578 35.3566 29.9215 35.4536 30.4847 35.5505L30.4865 35.5508C31.4332 35.7141 32.3787 35.8771 33.0806 35.2939C33.7789 34.7134 33.7746 33.7659 33.7702 32.8183L33.7702 32.8146C33.7677 32.2564 33.7653 31.6992 33.9022 31.539C34.0392 31.3791 34.5968 31.2864 35.1556 31.1934L35.1587 31.1929C36.1088 31.0355 37.0604 30.8777 37.526 30.0946C37.9904 29.314 37.6701 28.4232 37.3485 27.5293C37.1555 26.9931 36.9619 26.4551 37.04 26.2485C37.1181 26.0422 37.6134 25.7584 38.1112 25.4733C38.9551 24.9899 39.8039 24.5035 39.9721 23.5907C40.1375 22.6936 39.5358 21.9476 38.9287 21.1948L38.9284 21.1945L38.9273 21.1931C38.5553 20.7315 38.1803 20.2662 38.1803 20C38.1803 19.7341 38.5553 19.2688 38.9273 18.8072L38.9284 18.8058L38.9292 18.8049Z" fill="#FF5208"/>
<path d="M16.2541 24H13.3981L11.9341 21.552L10.4701 24H7.61408L10.2901 19.896L7.79408 15.996H10.6381L11.9341 18.276L13.2061 15.996H16.0741L13.5781 19.884L16.2541 24ZM19.0092 24H16.6812V15.996H19.1052V20.268L21.8892 15.996H24.3852V24H21.9612V19.464L19.0092 24ZM29.8212 24H27.3972V18.108H25.2492V15.996H31.9572V18.108H29.8212V24Z" fill="white"/>
</svg>
