<svg width="40" height="40" viewBox="0 0 40 40" fill="none" xmlns="http://www.w3.org/2000/svg">
<circle cx="20" cy="20" r="19.5" fill="white" stroke="#F65C42"/>
<path d="M14.0769 31.5601C12.8376 30.1518 11.5983 28.6873 10.8097 26.941C10.0211 25.0821 9.79573 22.9415 10.1901 20.9136C10.5844 18.8857 11.4856 16.9705 12.7813 15.3369C12.6686 16.7452 13.1756 18.2098 14.1332 19.2801C13.5699 16.5762 14.4712 13.647 16.2737 11.5065C18.0763 9.36593 20.5549 7.9576 23.1461 7C21.8505 8.35193 21.6815 10.4925 22.1884 12.2951C22.6954 14.0976 23.7657 15.6749 24.7233 17.3085C25.6809 18.942 26.5822 20.632 26.6386 22.4909C27.1455 21.5333 27.7089 20.5756 28.0469 19.5054C28.3848 18.4351 28.5538 17.3085 28.2722 16.2382C29.2861 17.4775 29.8495 18.7167 30.1311 20.294C30.4127 21.8712 30.3564 23.5048 30.1874 25.0821C29.9621 26.8283 29.5115 28.6309 28.5539 30.0955C27.4273 31.8417 25.6247 33.081 23.6531 33.7569C20.1606 34.3766 16.7244 33.8696 14.0769 31.5601Z" fill="#F65C43"/>
<path d="M18.3575 32.6443C22.9765 34.4469 27.5393 28.9828 25.0044 24.7581C25.0044 24.7017 24.9481 24.7017 24.9481 24.6454C25.1734 26.9549 24.6101 28.6449 23.5398 29.6025C24.1031 28.2506 23.7088 26.6733 23.0328 25.3214C22.3569 24.0258 21.3993 22.8429 20.6669 21.6036C19.9346 20.308 19.3714 18.8434 19.7093 17.3788C18.3574 18.3927 17.3998 19.9136 17.0055 21.5472C16.6112 23.1808 16.8365 24.9834 17.5688 26.5043C16.7239 25.8847 16.1042 24.8707 16.0479 23.8004C15.1466 24.8707 14.5833 26.279 14.6396 27.6873C14.6397 29.8841 16.3859 31.8557 18.3575 32.6443Z" fill="#FFD15C"/>
</svg>
