<svg width="40" height="40" viewBox="0 0 40 40" fill="none" xmlns="http://www.w3.org/2000/svg">
<path fill-rule="evenodd" clip-rule="evenodd" d="M19.9999 0C20.9534 0 21.6113 0.740662 22.2631 1.4743C22.6491 1.90887 23.0317 2.33948 23.2659 2.38129C23.5057 2.42432 24.0205 2.14264 24.5323 1.86249C25.3789 1.39893 26.2209 0.938416 27.0831 1.25458C27.9548 1.5744 28.2813 2.47467 28.6066 3.37189C28.7993 3.90289 28.991 4.43207 29.1744 4.53796C29.3581 4.64386 29.9228 4.54651 30.4866 4.44946C31.4333 4.28619 32.3788 4.12323 33.0808 4.70642C33.779 5.28687 33.7747 6.23444 33.7703 7.18201C33.7679 7.74139 33.7651 8.30078 33.9023 8.461C34.0396 8.62152 34.599 8.71429 35.1588 8.80707C36.1089 8.96484 37.0606 9.12262 37.5262 9.9054C37.9905 10.6863 37.6702 11.5771 37.3487 12.471C37.1557 13.0072 36.962 13.5452 37.0401 13.7518C37.1182 13.9578 37.6135 14.2416 38.1113 14.527C38.9552 15.0104 39.804 15.4965 39.9722 16.4093C40.1376 17.3065 39.5357 18.0527 38.9286 18.8058C38.5562 19.2679 38.1804 19.7339 38.1804 20C38.1804 20.2664 38.5562 20.7324 38.9286 21.1945C39.5357 21.9473 40.1376 22.6935 39.9722 23.5907C39.804 24.5035 38.9552 24.9899 38.1113 25.4733C37.6135 25.7584 37.1182 26.0422 37.0401 26.2485C36.962 26.4551 37.1557 26.9931 37.3487 27.5293C37.6702 28.4232 37.9905 29.314 37.5262 30.0946C37.0606 30.8777 36.1089 31.0355 35.1588 31.1929C34.599 31.286 34.0396 31.3788 33.9023 31.539C33.7651 31.6995 33.7679 32.2589 33.7703 32.8183C33.7747 33.7659 33.779 34.7134 33.0808 35.2939C32.3788 35.8771 31.4333 35.7141 30.4866 35.5508C29.9228 35.4538 29.3581 35.3564 29.1744 35.4623C28.991 35.5682 28.7993 36.0974 28.6066 36.6284C28.2813 37.5256 27.9548 38.4259 27.0831 38.7457C26.2209 39.0619 25.3789 38.6011 24.5323 38.1378C24.0205 37.8577 23.506 37.576 23.2659 37.619C23.0317 37.6608 22.6491 38.0914 22.2631 38.5257C21.6113 39.2593 20.9534 40 19.9999 40C19.0466 40 18.3887 39.2593 17.7366 38.5257C17.3509 38.0911 16.9683 37.6605 16.7338 37.6187C16.494 37.5757 15.9795 37.8574 15.4674 38.1375C14.6208 38.6011 13.7791 39.0616 12.917 38.7454C12.0449 38.4256 11.7187 37.5253 11.3931 36.6281C11.2008 36.0974 11.0087 35.5679 10.8253 35.462C10.6419 35.3561 10.0772 35.4535 9.51306 35.5508C8.56636 35.7138 7.6209 35.8768 6.91893 35.2936C6.22068 34.7131 6.22502 33.7656 6.22935 32.818C6.23214 32.2586 6.23462 31.6992 6.09739 31.539C5.96015 31.3785 5.40099 31.2857 4.84091 31.1929C3.8908 31.0355 2.93914 30.8774 2.47354 30.0946C2.00948 29.3137 2.3298 28.4229 2.65136 27.529C2.84435 26.9928 3.03766 26.4548 2.95959 26.2482C2.88183 26.0422 2.38649 25.7584 1.88836 25.473C1.04482 24.9896 0.195701 24.5035 0.0277987 23.5907C-0.137626 22.6935 0.463974 21.947 1.07115 21.1942C1.44382 20.7321 1.81959 20.2661 1.81959 19.9997C1.81959 19.7336 1.44382 19.2676 1.07115 18.8055C0.463974 18.0524 -0.137626 17.3065 0.0277987 16.409C0.195701 15.4962 1.04482 15.0101 1.88836 14.5267C2.38649 14.2413 2.88183 13.9575 2.95959 13.7515C3.03766 13.5449 2.84435 13.0069 2.65136 12.4707C2.3298 11.5768 2.00917 10.686 2.47354 9.9054C2.93914 9.12231 3.8908 8.96454 4.84091 8.80707C5.40099 8.71399 5.96015 8.62122 6.09739 8.461C6.23462 8.30048 6.23214 7.74109 6.22935 7.1817C6.22502 6.23413 6.22068 5.28625 6.91893 4.70642C7.6209 4.12323 8.56636 4.28589 9.51306 4.44916C10.0772 4.5462 10.6419 4.64355 10.8253 4.53766C11.0087 4.43207 11.2008 3.90259 11.3931 3.37158C11.7184 2.47467 12.0452 1.5741 12.917 1.25427C13.7791 0.93811 14.6208 1.39893 15.4674 1.86218C15.9795 2.14233 16.494 2.42401 16.7338 2.38098C16.9683 2.33917 17.3509 1.90857 17.7366 1.4743C18.3887 0.740662 19.0466 0 19.9999 0Z" fill="#3DB39D"/>
<path d="M38.929 18.8049C39.5359 18.052 40.1372 17.3061 39.9718 16.4093L9.5127 35.5508C10.0768 35.4535 10.6415 35.3561 10.8249 35.462C11.0083 35.5679 11.2004 36.0974 11.3928 36.6281L11.3934 36.6298C11.7188 37.5265 12.0451 38.4258 12.9166 38.7454C13.7787 39.0616 14.6204 38.6011 15.467 38.1375L15.4685 38.1367C15.9801 37.8568 16.4939 37.5757 16.7334 37.6187C16.9679 37.6605 17.3505 38.0911 17.7362 38.5257L17.7369 38.5265C18.3888 39.2599 19.0466 40 19.9995 40C20.953 40 21.6109 39.2594 22.2627 38.5258L22.2628 38.5257L22.2637 38.5247C22.6493 38.0908 23.0315 37.6608 23.2655 37.619C23.5056 37.576 24.0202 37.8577 24.5319 38.1378L24.5323 38.138C25.3788 38.6012 26.2207 39.0618 27.0827 38.7457C27.9544 38.4259 28.2809 37.5256 28.6062 36.6284L28.6073 36.6255C28.7996 36.0955 28.991 35.568 29.174 35.4623C29.3575 35.3566 29.9213 35.4536 30.4845 35.5505L30.4863 35.5508C31.433 35.7141 32.3784 35.8771 33.0804 35.2939C33.7787 34.7134 33.7743 33.7659 33.77 32.8183L33.77 32.8146C33.7675 32.2564 33.765 31.6992 33.902 31.539C34.0389 31.3791 34.5966 31.2864 35.1553 31.1934L35.1584 31.1929C36.1085 31.0355 37.0602 30.8777 37.5258 30.0946C37.9902 29.314 37.6698 28.4232 37.3483 27.5293C37.1553 26.9931 36.9617 26.4551 37.0397 26.2485C37.1178 26.0422 37.6132 25.7584 38.111 25.4733C38.9548 24.9899 39.8036 24.5035 39.9718 23.5907C40.1372 22.6936 39.5356 21.9476 38.9285 21.1948L38.9282 21.1945L38.9271 21.1931C38.5551 20.7315 38.1801 20.2662 38.1801 20C38.1801 19.7341 38.5551 19.2688 38.9271 18.8072L38.9282 18.8058L38.929 18.8049Z" fill="#1B927C"/>
<path d="M14.5532 24H12.2252L9.27317 19.944V24H6.84917V15.996H9.34517L12.1292 19.788V15.996H14.5532V24ZM21.9212 24H15.8492V15.996H21.9212V18.108H18.2732V18.9H21.8372V21.012H18.2732V21.888H21.9212V24ZM31.6496 24H29.1056L28.0736 19.464L27.0416 24H24.4976L22.2056 15.996H24.9176L25.9496 20.892L27.1616 15.996H28.9856L30.1976 20.892L31.2176 15.996H33.9416L31.6496 24Z" fill="white"/>
</svg>
