<svg width="324" height="159" viewBox="0 0 324 159" fill="none" xmlns="http://www.w3.org/2000/svg">
<path d="M54 58V106C54 112.627 59.3726 118 66 118H115C121.627 118 127 112.627 127 106V58C127 51.3726 121.627 46 115 46H66C59.3726 46 54 51.3726 54 58Z" stroke="#838589" stroke-width="2"/>
<path d="M1 13V61C1 67.6274 6.37259 73 13 73H62C68.6274 73 74 67.6274 74 61V13C74 6.37258 68.6274 1 62 1H13C6.37258 1 1 6.37258 1 13Z" stroke="#838589" stroke-width="2"/>
<path d="M139 85.5V105.5C139 108.814 141.686 111.5 145 111.5H165C168.314 111.5 171 108.814 171 105.5V85.5C171 82.1863 168.314 79.5 165 79.5H145C141.686 79.5 139 82.1863 139 85.5Z" stroke="#838589"/>
<path d="M169 135.5V148.5C169 149.605 169.895 150.5 171 150.5H184C185.105 150.5 186 149.605 186 148.5V135.5C186 134.395 185.105 133.5 184 133.5H171C169.895 133.5 169 134.395 169 135.5Z" stroke="#838589" stroke-width="0.5"/>
<path d="M309 125.5V135.5C309 136.605 309.895 137.5 311 137.5H321C322.105 137.5 323 136.605 323 135.5V125.5C323 124.395 322.105 123.5 321 123.5H311C309.895 123.5 309 124.395 309 125.5Z" stroke="#838589" stroke-width="0.5"/>
<path d="M241 62.5V75.5C241 76.6046 241.895 77.5 243 77.5H256C257.105 77.5 258 76.6046 258 75.5V62.5C258 61.3954 257.105 60.5 256 60.5H243C241.895 60.5 241 61.3954 241 62.5Z" stroke="#838589" stroke-width="0.5"/>
<path d="M208 104.5V120.5C208 122.157 209.343 123.5 211 123.5H227C228.657 123.5 230 122.157 230 120.5V104.5C230 102.843 228.657 101.5 227 101.5H211C209.343 101.5 208 102.843 208 104.5Z" stroke="#838589" stroke-width="0.75"/>
<path d="M184 54.5V74.5C184 77.8137 186.686 80.5 190 80.5H210C213.314 80.5 216 77.8137 216 74.5V54.5C216 51.1863 213.314 48.5 210 48.5H190C186.686 48.5 184 51.1863 184 54.5Z" stroke="#838589"/>
<path d="M79 132.5V152.5C79 155.814 81.6863 158.5 85 158.5H105C108.314 158.5 111 155.814 111 152.5V132.5C111 129.186 108.314 126.5 105 126.5H85C81.6863 126.5 79 129.186 79 132.5Z" stroke="#838589"/>
</svg>
