<svg width="324" height="159" viewBox="0 0 324 159" fill="none" xmlns="http://www.w3.org/2000/svg">
<path d="M54 58V106C54 112.627 59.3726 118 66 118H115C121.627 118 127 112.627 127 106V58C127 51.3726 121.627 46 115 46H66C59.3726 46 54 51.3726 54 58Z" stroke="#838589" stroke-width="2"/>
<path d="M55.5 103.5V55.5C55.5 52.4624 57.9624 50 61 50H108.5C114.023 50 118.5 54.4772 118.5 60V103.5C118.5 109.023 114.023 113.5 108.5 113.5H65.5C59.9772 113.5 55.5 109.023 55.5 103.5Z" stroke="#838589" stroke-width="2"/>
<path d="M1 13V61C1 67.6274 6.37259 73 13 73H62C68.6274 73 74 67.6274 74 61V13C74 6.37258 68.6274 1 62 1H13C6.37258 1 1 6.37258 1 13Z" stroke="#838589" stroke-width="2"/>
<path d="M2.5 58.5V10.5C2.5 7.46243 4.96244 5 8 5H55.5C61.0228 5 65.5 9.47715 65.5 15V58.5C65.5 64.0228 61.0228 68.5 55.5 68.5H12.5C6.97715 68.5 2.5 64.0229 2.5 58.5Z" stroke="#838589" stroke-width="2"/>
<path d="M139 85.5V105.5C139 108.814 141.686 111.5 145 111.5H165C168.314 111.5 171 108.814 171 105.5V85.5C171 82.1863 168.314 79.5 165 79.5H145C141.686 79.5 139 82.1863 139 85.5Z" stroke="#838589"/>
<path d="M139.657 103.944V84.1666C139.657 82.8166 140.752 81.7222 142.102 81.7222H161.274C164.587 81.7222 167.274 84.4085 167.274 87.7222V103.944C167.274 107.258 164.587 109.944 161.274 109.944H145.657C142.344 109.944 139.657 107.258 139.657 103.944Z" stroke="#838589"/>
<path d="M169 135.5V148.5C169 149.605 169.895 150.5 171 150.5H184C185.105 150.5 186 149.605 186 148.5V135.5C186 134.395 185.105 133.5 184 133.5H171C169.895 133.5 169 134.395 169 135.5Z" stroke="#838589" stroke-width="0.5"/>
<path d="M169.35 147.674V135.979C169.35 135.262 169.931 134.681 170.648 134.681H182.021C183.125 134.681 184.021 135.576 184.021 136.681V147.674C184.021 148.778 183.125 149.674 182.021 149.674H171.35C170.245 149.674 169.35 148.778 169.35 147.674Z" stroke="#838589" stroke-width="0.5"/>
<path d="M309 125.5V135.5C309 136.605 309.895 137.5 311 137.5H321C322.105 137.5 323 136.605 323 135.5V125.5C323 124.395 322.105 123.5 321 123.5H311C309.895 123.5 309 124.395 309 125.5Z" stroke="#838589" stroke-width="0.5"/>
<path d="M309.288 134.819V125.542C309.288 124.951 309.767 124.472 310.358 124.472H319.37C320.475 124.472 321.37 125.368 321.37 126.472V134.819C321.37 135.924 320.475 136.819 319.37 136.819H311.288C310.184 136.819 309.288 135.924 309.288 134.819Z" stroke="#838589" stroke-width="0.5"/>
<path d="M241 62.5V75.5C241 76.6046 241.895 77.5 243 77.5H256C257.105 77.5 258 76.6046 258 75.5V62.5C258 61.3954 257.105 60.5 256 60.5H243C241.895 60.5 241 61.3954 241 62.5Z" stroke="#838589" stroke-width="0.5"/>
<path d="M241.35 74.6736V62.9792C241.35 62.262 241.931 61.6805 242.648 61.6805H254.021C255.125 61.6805 256.021 62.576 256.021 63.6805V74.6736C256.021 75.7782 255.125 76.6736 254.021 76.6736H243.35C242.245 76.6736 241.35 75.7782 241.35 74.6736Z" stroke="#838589" stroke-width="0.5"/>
<path d="M208 104.5V120.5C208 122.157 209.343 123.5 211 123.5H227C228.657 123.5 230 122.157 230 120.5V104.5C230 102.843 228.657 101.5 227 101.5H211C209.343 101.5 208 102.843 208 104.5Z" stroke="#838589" stroke-width="0.75"/>
<path d="M208.452 119.431V104.708C208.452 103.78 209.205 103.028 210.133 103.028H224.438C226.095 103.028 227.438 104.371 227.438 106.028V119.431C227.438 121.087 226.095 122.431 224.438 122.431H211.452C209.795 122.431 208.452 121.087 208.452 119.431Z" stroke="#838589" stroke-width="0.75"/>
<path d="M184 54.5V74.5C184 77.8137 186.686 80.5 190 80.5H210C213.314 80.5 216 77.8137 216 74.5V54.5C216 51.1863 213.314 48.5 210 48.5H190C186.686 48.5 184 51.1863 184 54.5Z" stroke="#838589"/>
<path d="M184.657 72.9444V53.1666C184.657 51.8166 185.752 50.7222 187.102 50.7222H206.274C209.587 50.7222 212.274 53.4085 212.274 56.7222V72.9444C212.274 76.2581 209.587 78.9444 206.274 78.9444H190.657C187.344 78.9444 184.657 76.2581 184.657 72.9444Z" stroke="#838589"/>
<path d="M79 132.5V152.5C79 155.814 81.6863 158.5 85 158.5H105C108.314 158.5 111 155.814 111 152.5V132.5C111 129.186 108.314 126.5 105 126.5H85C81.6863 126.5 79 129.186 79 132.5Z" stroke="#838589"/>
<path d="M79.6572 150.944V131.167C79.6572 129.817 80.7516 128.722 82.1017 128.722H101.274C104.587 128.722 107.274 131.409 107.274 134.722V150.944C107.274 154.258 104.587 156.944 101.274 156.944H85.6572C82.3435 156.944 79.6572 154.258 79.6572 150.944Z" stroke="#838589"/>
</svg>
