<svg width="40" height="40" viewBox="0 0 40 40" fill="none" xmlns="http://www.w3.org/2000/svg">
<circle cx="20" cy="20" r="19" stroke="#FF1506" stroke-width="2"/>
<path d="M14.7755 20.916C13.6462 20.916 12.7222 20.5347 12.0035 19.772C11.2995 18.9947 10.9475 17.9607 10.9475 16.67C10.9475 15.3793 11.2995 14.3527 12.0035 13.59C12.7222 12.8127 13.6462 12.424 14.7755 12.424C15.9048 12.424 16.8215 12.8127 17.5255 13.59C18.2295 14.3527 18.5815 15.3793 18.5815 16.67C18.5815 17.9607 18.2295 18.9947 17.5255 19.772C16.8215 20.5347 15.9048 20.916 14.7755 20.916ZM23.9495 12.6H26.5675L16.0515 28H13.4335L23.9495 12.6ZM14.7755 19.112C15.2742 19.112 15.6628 18.9067 15.9415 18.496C16.2348 18.0853 16.3815 17.4767 16.3815 16.67C16.3815 15.8633 16.2348 15.2547 15.9415 14.844C15.6628 14.4333 15.2742 14.228 14.7755 14.228C14.2915 14.228 13.9028 14.4407 13.6095 14.866C13.3162 15.2767 13.1695 15.878 13.1695 16.67C13.1695 17.462 13.3162 18.0707 13.6095 18.496C13.9028 18.9067 14.2915 19.112 14.7755 19.112ZM25.2255 28.176C24.4922 28.176 23.8322 28.0073 23.2455 27.67C22.6735 27.318 22.2262 26.8193 21.9035 26.174C21.5808 25.5287 21.4195 24.7807 21.4195 23.93C21.4195 23.0793 21.5808 22.3313 21.9035 21.686C22.2262 21.0407 22.6735 20.5493 23.2455 20.212C23.8322 19.86 24.4922 19.684 25.2255 19.684C26.3548 19.684 27.2715 20.0727 27.9755 20.85C28.6942 21.6127 29.0535 22.6393 29.0535 23.93C29.0535 25.2207 28.6942 26.2547 27.9755 27.032C27.2715 27.7947 26.3548 28.176 25.2255 28.176ZM25.2255 26.372C25.7242 26.372 26.1128 26.1667 26.3915 25.756C26.6848 25.3307 26.8315 24.722 26.8315 23.93C26.8315 23.138 26.6848 22.5367 26.3915 22.126C26.1128 21.7007 25.7242 21.488 25.2255 21.488C24.7415 21.488 24.3528 21.6933 24.0595 22.104C23.7662 22.5147 23.6195 23.1233 23.6195 23.93C23.6195 24.7367 23.7662 25.3453 24.0595 25.756C24.3528 26.1667 24.7415 26.372 25.2255 26.372Z" fill="#FF1506"/>
</svg>
