<svg width="40" height="40" viewBox="0 0 40 40" fill="none" xmlns="http://www.w3.org/2000/svg">
<circle cx="20" cy="20" r="19.5" stroke="#FF1506"/>
<path d="M14.7753 20.916C13.6459 20.916 12.7219 20.5347 12.0033 19.772C11.2993 18.9947 10.9473 17.9607 10.9473 16.67C10.9473 15.3793 11.2993 14.3527 12.0033 13.59C12.7219 12.8127 13.6459 12.424 14.7753 12.424C15.9046 12.424 16.8213 12.8127 17.5253 13.59C18.2293 14.3527 18.5813 15.3793 18.5813 16.67C18.5813 17.9607 18.2293 18.9947 17.5253 19.772C16.8213 20.5347 15.9046 20.916 14.7753 20.916ZM23.9493 12.6H26.5673L16.0513 28H13.4333L23.9493 12.6ZM14.7753 19.112C15.2739 19.112 15.6626 18.9067 15.9413 18.496C16.2346 18.0853 16.3813 17.4767 16.3813 16.67C16.3813 15.8633 16.2346 15.2547 15.9413 14.844C15.6626 14.4333 15.2739 14.228 14.7753 14.228C14.2913 14.228 13.9026 14.4407 13.6093 14.866C13.3159 15.2767 13.1693 15.878 13.1693 16.67C13.1693 17.462 13.3159 18.0707 13.6093 18.496C13.9026 18.9067 14.2913 19.112 14.7753 19.112ZM25.2253 28.176C24.4919 28.176 23.8319 28.0073 23.2453 27.67C22.6733 27.318 22.2259 26.8193 21.9033 26.174C21.5806 25.5287 21.4193 24.7807 21.4193 23.93C21.4193 23.0793 21.5806 22.3313 21.9033 21.686C22.2259 21.0407 22.6733 20.5493 23.2453 20.212C23.8319 19.86 24.4919 19.684 25.2253 19.684C26.3546 19.684 27.2713 20.0727 27.9753 20.85C28.6939 21.6127 29.0533 22.6393 29.0533 23.93C29.0533 25.2207 28.6939 26.2547 27.9753 27.032C27.2713 27.7947 26.3546 28.176 25.2253 28.176ZM25.2253 26.372C25.7239 26.372 26.1126 26.1667 26.3913 25.756C26.6846 25.3307 26.8313 24.722 26.8313 23.93C26.8313 23.138 26.6846 22.5367 26.3913 22.126C26.1126 21.7007 25.7239 21.488 25.2253 21.488C24.7413 21.488 24.3526 21.6933 24.0593 22.104C23.7659 22.5147 23.6193 23.1233 23.6193 23.93C23.6193 24.7367 23.7659 25.3453 24.0593 25.756C24.3526 26.1667 24.7413 26.372 25.2253 26.372Z" fill="#FF1506"/>
</svg>
