<svg width="16" height="30" viewBox="0 0 16 30" fill="none" xmlns="http://www.w3.org/2000/svg">
<path d="M15 25V28.5C15 29.0523 14.5523 29.5 14 29.5H13.5C12.9477 29.5 12.5 29.0523 12.5 28.5V25M15 25V15.5C15 14.9477 14.5523 14.5 14 14.5H3.5M15 25H12.5M0.5 25V28.5C0.5 29.0523 0.947715 29.5 1.5 29.5H2C2.55228 29.5 3 29.0523 3 28.5V25M0.5 25V14.5M0.5 25H3M0.5 14.5H3.5M0.5 14.5V13.7124C0.5 11.5998 0.991862 9.51628 1.93663 7.62673L1.95343 7.59314C1.98375 7.53249 1.99486 7.46404 1.98527 7.39691V7.39691C1.67076 5.1953 2.09905 2.95165 3.20245 1.02071L3.37324 0.721832C3.44942 0.58852 3.60057 0.516761 3.75202 0.542003L5.45084 0.82514C6.01951 0.919919 6.39047 1.47464 6.26083 2.03639L5 7.5L3.5 14.5M12.5 25H3" stroke="black"/>
</svg>
