<svg width="16" height="17" viewBox="0 0 16 17" fill="none" xmlns="http://www.w3.org/2000/svg">
<path d="M16 15V11.5H15V15H16ZM0.5 11.5V15H1.5V11.5H0.5ZM14.5 15.5H14V16.5H14.5V15.5ZM15.5 11H13V12H15.5V11ZM13.5 15V11.5H12.5V15H13.5ZM2 16.5H2.5V15.5H2V16.5ZM13 11H3.5V12H13V11ZM3.5 11H1V12H3.5V11ZM4 15V11.5H3V15H4ZM15 8.5V9H16V8.5H15ZM15 9V11.5H16V9H15ZM1.5 11.5V9H0.5V11.5H1.5ZM1.5 9V8H0.5V9H1.5ZM15.5 8.5H1V9.5H15.5V8.5ZM2.5 16.5C3.32843 16.5 4 15.8284 4 15H3C3 15.2761 2.77614 15.5 2.5 15.5V16.5ZM14 15.5C13.7239 15.5 13.5 15.2761 13.5 15H12.5C12.5 15.8284 13.1716 16.5 14 16.5V15.5ZM8 0.5C3.85786 0.5 0.5 3.85786 0.5 8H1.5C1.5 4.41015 4.41015 1.5 8 1.5V0.5ZM0.5 15C0.5 15.8284 1.17157 16.5 2 16.5V15.5C1.72386 15.5 1.5 15.2761 1.5 15H0.5ZM8 1.5C11.866 1.5 15 4.63401 15 8.5H16C16 4.08172 12.4183 0.5 8 0.5V1.5ZM15 15C15 15.2761 14.7761 15.5 14.5 15.5V16.5C15.3284 16.5 16 15.8284 16 15H15Z" fill="black"/>
</svg>
