<svg width="25" height="17" viewBox="0 0 25 17" fill="none" xmlns="http://www.w3.org/2000/svg">
<path d="M25 15V11.5H24V15H25ZM0.5 11.5V15H1.5V11.5H0.5ZM1.5 11.5V2H0.5V11.5H1.5ZM24 2V11.5H25V2H24ZM2 1.5H8V0.5H2V1.5ZM8 1.5H23.5V0.5H8V1.5ZM23.5 15.5H23V16.5H23.5V15.5ZM24.5 11H22V12H24.5V11ZM22.5 15V11.5H21.5V15H22.5ZM2 16.5H2.5V15.5H2V16.5ZM22 11H3.5V12H22V11ZM3.5 11H1V12H3.5V11ZM4 15V11.5H3V15H4ZM2.5 16.5C3.32843 16.5 4 15.8284 4 15H3C3 15.2761 2.77614 15.5 2.5 15.5V16.5ZM23 15.5C22.7239 15.5 22.5 15.2761 22.5 15H21.5C21.5 15.8284 22.1716 16.5 23 16.5V15.5ZM1.5 2C1.5 1.72386 1.72386 1.5 2 1.5V0.5C1.17157 0.5 0.5 1.17157 0.5 2H1.5ZM0.5 15C0.5 15.8284 1.17157 16.5 2 16.5V15.5C1.72386 15.5 1.5 15.2761 1.5 15H0.5ZM25 2C25 1.17157 24.3284 0.5 23.5 0.5V1.5C23.7761 1.5 24 1.72386 24 2H25ZM24 15C24 15.2761 23.7761 15.5 23.5 15.5V16.5C24.3284 16.5 25 15.8284 25 15H24Z" fill="black"/>
</svg>
