<svg width="16" height="16" viewBox="0 0 16 16" fill="none" xmlns="http://www.w3.org/2000/svg">
<path fill-rule="evenodd" clip-rule="evenodd" d="M15.8485 15.1295L11.7175 11.0646C12.7993 9.88931 13.4639 8.33496 13.4639 6.62455C13.4634 2.96568 10.4497 0 6.73171 0C3.01376 0 0 2.96568 0 6.62455C0 10.2834 3.01376 13.2491 6.73171 13.2491C8.33813 13.2491 9.81149 12.6935 10.9688 11.7698L15.1159 15.8507C15.3179 16.0498 15.646 16.0498 15.848 15.8507C16.0506 15.6517 16.0506 15.3286 15.8485 15.1295ZM6.73188 12.2297C3.58609 12.2297 1.03594 9.72011 1.03594 6.62437C1.03594 3.52863 3.58609 1.01904 6.73188 1.01904C9.8777 1.01904 12.4278 3.52863 12.4278 6.62437C12.4278 9.72011 9.8777 12.2297 6.73188 12.2297Z" fill="#201F1F"/>
</svg>
