<svg width="95" height="34" viewBox="0 0 95 34" fill="none" xmlns="http://www.w3.org/2000/svg">
<path d="M64 15V30V32.5C64 33.0523 63.5523 33.5 63 33.5H62.0803C61.7215 33.5 61.3901 33.3077 61.2121 32.9961L59.7879 30.5039C59.6099 30.1923 59.2785 30 58.9197 30H8.6594C8.25937 30 7.89783 30.2384 7.74025 30.6061L6.75975 32.8939C6.60217 33.2616 6.24063 33.5 5.8406 33.5H4.5C3.94772 33.5 3.5 33.0523 3.5 32.5V31C3.5 30.4477 3.05228 30 2.5 30H2C1.44772 30 1 29.5523 1 29V16C1 15.4477 1.44772 15 2 15H4M64 15V2C64 1.44772 63.5523 1 63 1H5C4.44771 1 4 1.44772 4 2V15M64 15V19.5M64 15V10V5M4 15V19.5M64 19.5V23.5C64 24.0523 63.5523 24.5 63 24.5H44M64 19.5H44M4 19.5V23.5C4 24.0523 4.44772 24.5 5 24.5H23.5M4 19.5H23.5M23.5 19.5V24.5M23.5 19.5H44M23.5 24.5H44M44 24.5V19.5M58.5 10H44M44 10V5M44 10V15M44 10H23.5M23.5 10V5M23.5 10V15M23.5 10H9M91.5 15H93C93.5523 15 94 15.4477 94 16V29C94 29.5523 93.5523 30 93 30H92.5C91.9477 30 91.5 30.4477 91.5 31V32.5C91.5 33.0523 91.0523 33.5 90.5 33.5H89.5803C89.2215 33.5 88.8901 33.3077 88.7121 32.9961L87.2879 30.5039C87.1099 30.1923 86.7785 30 86.4197 30H75.6594C75.2594 30 74.8978 30.2384 74.7403 30.6061L73.7597 32.8939C73.6022 33.2616 73.2406 33.5 72.8406 33.5H72C71.4477 33.5 71 33.0523 71 32.5V24.5M91.5 15V23.5C91.5 24.0523 91.0523 24.5 90.5 24.5H71M91.5 15V2C91.5 1.44772 91.0523 1 90.5 1H72C71.4477 1 71 1.44772 71 2V24.5M73.5 10H81.25M89 10H81.25M81.25 10V5V15" stroke="black" stroke-linecap="round" stroke-linejoin="round"/>
</svg>
