<svg width="85" height="34" viewBox="0 0 85 34" fill="none" xmlns="http://www.w3.org/2000/svg">
<path d="M81 15H83.5C84.0523 15 84.5 15.4477 84.5 16V29C84.5 29.5523 84.0523 30 83.5 30H82C81.4477 30 81 30.4477 81 31V32.5C81 33.0523 80.5523 33.5 80 33.5H79.0803C78.7215 33.5 78.3901 33.3077 78.2121 32.9961L76.7879 30.5039C76.6099 30.1923 76.2785 30 75.9197 30H30.5M81 15V2C81 1.44772 80.5523 1 80 1H2C1.44771 1 1 1.44772 1 2V15M81 15V19.5M1 15V27.5V30V32.5C1 33.0523 1.44772 33.5 2 33.5H3.5H29.5C30.0523 33.5 30.5 33.0523 30.5 32.5V30M1 15H20.5M30.5 30V15M30.5 30V24.5M81 19.5V23.5C81 24.0523 80.5523 24.5 80 24.5H61M81 19.5H61M30.5 15V19.5M30.5 15H20.5M30.5 19.5V24.5M30.5 19.5H41M30.5 24.5H41M41 24.5V19.5M41 24.5H61M41 19.5H61M61 19.5V24.5M61 5V10M61 15V10M61 10H75.5H41M41 10V5M41 10V15M41 10H20.5M20.5 10V5M20.5 10H6M20.5 10V15" stroke="black" stroke-linecap="round" stroke-linejoin="round"/>
</svg>
