<svg width="68" height="34" viewBox="0 0 68 34" fill="none" xmlns="http://www.w3.org/2000/svg">
<path d="M64 15H66.5C67.0523 15 67.5 15.4477 67.5 16V29C67.5 29.5523 67.0523 30 66.5 30H65C64.4477 30 64 30.4477 64 31V32.5C64 33.0523 63.5523 33.5 63 33.5H62.0803C61.7215 33.5 61.3901 33.3077 61.2121 32.9961L59.7879 30.5039C59.6099 30.1923 59.2785 30 58.9197 30H8.6594C8.25937 30 7.89783 30.2384 7.74025 30.6061L6.75975 32.8939C6.60217 33.2616 6.24063 33.5 5.8406 33.5H4.5C3.94772 33.5 3.5 33.0523 3.5 32.5V31C3.5 30.4477 3.05228 30 2.5 30H2C1.44772 30 1 29.5523 1 29V16C1 15.4477 1.44772 15 2 15H4M64 15V2C64 1.44772 63.5523 1 63 1H5C4.44771 1 4 1.44772 4 2V15M64 15V19.5M4 15V19.5M64 19.5V23.5C64 24.0523 63.5523 24.5 63 24.5H46M64 19.5H46M4 19.5V23.5C4 24.0523 4.44772 24.5 5 24.5H23.5M4 19.5H23.5M23.5 19.5V24.5M23.5 19.5H46M23.5 24.5H46M46 24.5V19.5M61.5 10H53.5H46M46 10V5M46 10V15M46 10H23.5M23.5 10V5M23.5 10V15M23.5 10H9" stroke="black" stroke-linecap="round" stroke-linejoin="round"/>
</svg>
