<svg width="88" height="34" viewBox="0 0 88 34" fill="none" xmlns="http://www.w3.org/2000/svg">
<path d="M84 5H86.5C87.0523 5 87.5 5.44772 87.5 6V29C87.5 29.5523 87.0523 30 86.5 30H85C84.4477 30 84 30.4477 84 31V32.5C84 33.0523 83.5523 33.5 83 33.5H82.0803C81.7215 33.5 81.3901 33.3077 81.2121 32.9961L79.7879 30.5039C79.6099 30.1923 79.2785 30 78.9197 30H8.6594C8.25937 30 7.89783 30.2384 7.74025 30.6061L6.75975 32.8939C6.60217 33.2616 6.24063 33.5 5.8406 33.5H4.5C3.94772 33.5 3.5 33.0523 3.5 32.5V31C3.5 30.4477 3.05228 30 2.5 30H2C1.44772 30 1 29.5523 1 29V16C1 15.4477 1.44772 15 2 15H4M84 5V2C84 1.44772 83.5523 1 83 1H5C4.44771 1 4 1.44772 4 2V15M84 5H83C82.4477 5 82 5.44771 82 6V19.5M4 15V19.5M82 19.5V23.5C82 24.0523 81.5523 24.5 81 24.5H64M82 19.5H64M4 19.5V23.5C4 24.0523 4.44772 24.5 5 24.5H23.5M4 19.5H23.5M23.5 19.5V24.5M23.5 19.5H44M23.5 24.5H44M44 24.5V19.5M44 24.5H64M44 19.5H64M64 19.5V24.5" stroke="black" stroke-linecap="round" stroke-linejoin="round"/>
</svg>
