<svg width="48" height="34" viewBox="0 0 48 34" fill="none" xmlns="http://www.w3.org/2000/svg">
<path d="M44 15H46.5C47.0523 15 47.5 15.4477 47.5 16V29C47.5 29.5523 47.0523 30 46.5 30H45C44.4477 30 44 30.4477 44 31V32.5C44 33.0523 43.5523 33.5 43 33.5H42.0803C41.7215 33.5 41.3901 33.3077 41.2121 32.9961L39.7879 30.5039C39.6099 30.1923 39.2785 30 38.9197 30H8.6594C8.25937 30 7.89783 30.2384 7.74025 30.6061L6.75975 32.8939C6.60217 33.2616 6.24063 33.5 5.8406 33.5H4.5C3.94772 33.5 3.5 33.0523 3.5 32.5V31C3.5 30.4477 3.05228 30 2.5 30H2C1.44772 30 1 29.5523 1 29V16C1 15.4477 1.44772 15 2 15H4M44 15V2C44 1.44772 43.5523 1 43 1H5C4.44771 1 4 1.44772 4 2V15M44 15V19.5M4 15V19.5M44 19.5V23.5C44 24.0523 43.5523 24.5 43 24.5H23.5M44 19.5H23.5M4 19.5V23.5C4 24.0523 4.44772 24.5 5 24.5H23.5M4 19.5H23.5M23.5 19.5V24.5M34 5V10V15M40.5 10H15.5M15.5 10V5M15.5 10V15M15.5 10H8" stroke="black" stroke-linecap="round" stroke-linejoin="round"/>
</svg>
